<svg width="79" height="61" viewBox="0 0 79 61" xmlns="http://www.w3.org/2000/svg"><title>Shape</title><path d="M66.527 2.043a34.067 34.067 0 0 0-3.382 2.156c-2.485 1.897-4.902 4.103-7.256 6.618a50.733 50.733 0 0 0-6.275 8.285 44.045 44.045 0 0 0-4.363 9.609 34.18 34.18 0 0 0-1.617 10.393c0 1.765.228 3.84.686 6.225.457 2.387 1.373 4.674 2.745 6.864 1.373 2.19 3.317 4.053 5.834 5.588 2.515 1.537 5.8 2.304 9.854 2.304 2.353 0 4.493-.343 6.422-1.029 1.927-.687 3.61-1.683 5.049-2.991 1.437-1.306 2.549-2.924 3.333-4.853.785-1.927 1.177-4.133 1.177-6.618 0-2.549-.573-4.787-1.716-6.716a15.862 15.862 0 0 0-4.461-4.853 20.324 20.324 0 0 0-6.03-2.942c-2.19-.652-4.331-.98-6.422-.98-1.112 0-1.749-.294-1.912-.882a6.258 6.258 0 0 1-.245-1.667c0-1.307.261-2.614.785-3.922a23.394 23.394 0 0 1 1.961-3.824 27.728 27.728 0 0 1 2.647-3.53 67.224 67.224 0 0 1 2.843-3.039 28.97 28.97 0 0 1 2.01-1.618A55.81 55.81 0 0 0 70.4 8.905a9.275 9.275 0 0 0 1.814-1.961c.49-.718.767-1.503.833-2.352 0-.719-.164-1.503-.49-2.354-.328-.849-1.144-1.274-2.451-1.274-1.112 0-2.304.36-3.579 1.079zm-43.042 0a34.067 34.067 0 0 0-3.382 2.156c-2.485 1.897-4.902 4.103-7.256 6.618a50.733 50.733 0 0 0-6.275 8.285 43.995 43.995 0 0 0-4.362 9.609A34.15 34.15 0 0 0 .592 39.104c0 1.765.228 3.84.686 6.225.457 2.387 1.373 4.674 2.745 6.864 1.373 2.19 3.317 4.053 5.834 5.588 2.516 1.537 5.8 2.304 9.854 2.304 2.353 0 4.493-.343 6.422-1.029 1.927-.687 3.61-1.683 5.049-2.991 1.437-1.306 2.549-2.924 3.334-4.853.784-1.927 1.176-4.133 1.176-6.618 0-2.549-.573-4.787-1.716-6.716a15.862 15.862 0 0 0-4.461-4.853 20.324 20.324 0 0 0-6.03-2.942c-2.19-.652-4.33-.98-6.422-.98-1.112 0-1.749-.294-1.911-.882a6.22 6.22 0 0 1-.246-1.667c0-1.307.261-2.614.785-3.922a23.394 23.394 0 0 1 1.961-3.824 27.728 27.728 0 0 1 2.647-3.53 67.224 67.224 0 0 1 2.843-3.039 28.735 28.735 0 0 1 2.01-1.618 55.81 55.81 0 0 0 2.206-1.716 9.275 9.275 0 0 0 1.814-1.961c.49-.718.767-1.503.833-2.352 0-.719-.163-1.503-.49-2.354-.328-.849-1.144-1.274-2.451-1.274-1.112 0-2.304.36-3.579 1.079z" fill="#9C0" fill-rule="evenodd"/></svg>