<svg width="163" height="103" viewBox="0 0 163 103" xmlns="http://www.w3.org/2000/svg"><title>Group 15</title><g fill="#9C0" fill-rule="evenodd"><path d="M64 71v-4h4v4h-4zm8 0v-4h4v4h-4zm-16 0v-4h4v4h-4zm-8 0v-4h4v4h-4zm32 0v-4h4v4h-4zm8 0v-4h4v4h-4zm16 0v-4h4v4h-4zm8 0v-4h4v4h-4zm-16 0v-4h4v4h-4zM128.74 71.223a2.867 2.867 0 0 1-2.857-2.87 2.867 2.867 0 0 1 2.856-2.87 2.867 2.867 0 0 1 2.857 2.87 2.867 2.867 0 0 1-2.857 2.87m0-9.701c-3.75 0-6.8 3.065-6.8 6.831 0 3.767 3.05 6.831 6.8 6.831s6.8-3.064 6.8-6.831c0-3.766-3.05-6.831-6.8-6.831"/><path d="M150.42 89.61c-5.815 6.08-13.64 9.429-22.03 9.429a30.416 30.416 0 0 1-15.075-3.995c-8.806-5.033-19.18-7.694-30-7.694h-3.749c-10.82 0-21.194 2.66-30.001 7.694a30.408 30.408 0 0 1-15.074 3.995c-8.39 0-16.214-3.349-22.03-9.428C6.65 83.534 3.633 75.537 3.97 67.09c.586-14.736 11.912-27.063 26.243-29.109v22.34a8.281 8.281 0 0 0-6.27 8.03c0 4.565 3.697 8.28 8.241 8.28 4.545 0 8.241-3.715 8.241-8.28h-3.943c0 2.382-1.929 4.318-4.298 4.318-2.37 0-4.298-1.936-4.298-4.317 0-1.663.952-3.091 2.327-3.812v3.812h3.943V37.685c5.211-.049 10.323 1.195 14.87 3.675 9.597 5.23 20.037 7.996 30.192 7.996h4.446c10.153 0 20.594-2.765 30.193-7.996 4.974-2.713 10.62-3.967 16.342-3.642 15.48.897 28.092 13.798 28.713 29.373.336 8.446-2.68 16.443-8.492 22.52zM34.156 16.37V7.249l9.08 4.562-9.08 4.56zm128.697 50.563c-.701-17.588-14.944-32.157-32.428-33.168a34.326 34.326 0 0 0-18.45 4.113c-9.02 4.918-18.813 7.516-28.311 7.516h-4.446c-9.5 0-19.29-2.598-28.31-7.516-5.126-2.794-10.884-4.212-16.752-4.154V20.8l17.9-8.99L30.213.838V33.98C13.769 36.048.699 50.105.029 66.933c-.379 9.533 3.027 18.561 9.59 25.422C16.183 99.219 25.017 103 34.49 103c5.974 0 11.861-1.561 17.026-4.513 8.213-4.695 17.912-7.177 28.05-7.177h3.748c10.138 0 19.836 2.482 28.05 7.177a34.368 34.368 0 0 0 17.025 4.513c9.474 0 18.307-3.782 24.873-10.646 6.562-6.86 9.968-15.889 9.59-25.422z"/></g></svg>