<svg width="117" height="123" viewBox="0 0 117 123" xmlns="http://www.w3.org/2000/svg"><title>Combined Shape</title><path d="M28 3.485c-4.145 0-7.515 3.37-7.515 7.515 0 4.144 3.37 7.515 7.514 7.515 4.145 0 7.516-3.37 7.516-7.515 0-4.144-3.371-7.515-7.516-7.515zM28 22c-6.066 0-11-4.935-11-11 0-6.066 4.934-11 11-11 6.065 0 11 4.934 11 11 0 6.065-4.935 11-11 11zm13.53 48.463V50H45v73h-3.47V73.954H30.234V123h-3.47V73.954H15.47V123H12V50h3.47v20.463h26.06zM117 3v28.977H75.436V123h-3.475V36.495c-2.26 3.022-5.61 6.302-9.915 7.11-.673.126-1.347.189-2.023.189-3.56 0-7.12-1.76-10.61-5.253a19.515 19.515 0 0 0-13.431-5.322h-5.925v26.344h-3.475V33.219h-14.41c-6.42 0-8.697 5.7-8.697 10.583v28.592H0V43.802c0-8.41 4.892-14.061 12.171-14.061h23.81c5.919 0 11.55 2.24 15.853 6.306 3.326 3.327 6.532 4.706 9.572 4.139 5.83-1.094 9.784-8.735 10.555-10.336V3H117zM75.436 28.499h38.089V6.479H75.436v22.02z" fill="#9C0" fill-rule="evenodd"/></svg>