<svg width="79" height="61" viewBox="0 0 79 61" xmlns="http://www.w3.org/2000/svg"><title>Shape</title><path d="M12.473 58.958a34.247 34.247 0 0 0 3.382-2.157c2.485-1.897 4.903-4.103 7.256-6.618a50.629 50.629 0 0 0 6.274-8.285 44.023 44.023 0 0 0 4.364-9.609 34.18 34.18 0 0 0 1.617-10.393c0-1.764-.228-3.84-.686-6.225-.457-2.387-1.373-4.674-2.745-6.864-1.373-2.19-3.317-4.053-5.834-5.588-2.516-1.537-5.8-2.304-9.854-2.304-2.353 0-4.493.343-6.422 1.029-1.927.687-3.61 1.683-5.049 2.991-1.437 1.306-2.549 2.924-3.333 4.853C.658 11.715.266 13.921.266 16.406c0 2.549.573 4.787 1.716 6.716a15.85 15.85 0 0 0 4.461 4.853 20.3 20.3 0 0 0 6.03 2.942c2.19.653 4.33.98 6.422.98 1.112 0 1.749.294 1.912.883a6.24 6.24 0 0 1 .245 1.666c0 1.307-.261 2.614-.785 3.922a23.394 23.394 0 0 1-1.961 3.824 27.728 27.728 0 0 1-2.647 3.53 67.224 67.224 0 0 1-2.843 3.039 29.027 29.027 0 0 1-2.01 1.618A57.74 57.74 0 0 0 8.6 52.094a9.28 9.28 0 0 0-1.814 1.962 4.754 4.754 0 0 0-.833 2.352c0 .719.164 1.503.49 2.354.328.849 1.144 1.274 2.451 1.274 1.112 0 2.304-.36 3.579-1.078zm43.042 0a34.247 34.247 0 0 0 3.382-2.157c2.485-1.897 4.902-4.103 7.256-6.618a50.629 50.629 0 0 0 6.274-8.285 44.023 44.023 0 0 0 4.364-9.609 34.18 34.18 0 0 0 1.617-10.393c0-1.764-.228-3.84-.686-6.225-.457-2.387-1.373-4.674-2.745-6.864-1.373-2.19-3.317-4.053-5.834-5.588-2.515-1.537-5.8-2.304-9.854-2.304-2.353 0-4.493.343-6.422 1.029-1.927.687-3.61 1.683-5.049 2.991-1.437 1.306-2.549 2.924-3.333 4.853-.785 1.927-1.177 4.133-1.177 6.618 0 2.549.573 4.787 1.716 6.716a15.85 15.85 0 0 0 4.461 4.853 20.3 20.3 0 0 0 6.03 2.942c2.19.653 4.331.98 6.422.98 1.112 0 1.749.294 1.912.883a6.24 6.24 0 0 1 .245 1.666c0 1.307-.261 2.614-.785 3.922a23.394 23.394 0 0 1-1.961 3.824 27.728 27.728 0 0 1-2.647 3.53 67.224 67.224 0 0 1-2.843 3.039 29.268 29.268 0 0 1-2.01 1.618 57.74 57.74 0 0 0-2.206 1.715 9.28 9.28 0 0 0-1.814 1.962 4.754 4.754 0 0 0-.833 2.352c0 .719.164 1.503.49 2.354.328.849 1.144 1.274 2.451 1.274 1.112 0 2.304-.36 3.579-1.078z" fill="#9C0" fill-rule="evenodd"/></svg>