<svg width="93" height="136" viewBox="0 0 93 136" xmlns="http://www.w3.org/2000/svg"><title>Combined Shape</title><path d="M49 15.204c-4.299 0-7.796 3.497-7.796 7.795 0 4.3 3.497 7.797 7.796 7.797S56.796 27.3 56.796 23c0-4.298-3.497-7.795-7.796-7.795zM49 34c-6.065 0-11-4.935-11-11s4.935-11 11-11c6.066 0 11 4.935 11 11s-4.934 11-11 11zm16.142 8.283c2.713.045 4.94.863 6.438 2.366 6.136 6.154 6.725 15.066 3.753 19.796-1.297 2.064-3.182 3.163-5.284 3.163-.73 0-1.486-.133-2.253-.404l-.237-.084-2.435-1.878V136h-3.162V86.64h-11.69V136h-3.163V86.64H34.411V136H31.25V48.034a19.891 19.891 0 0 0-3.897 2.856c-2.741 2.749-5.431 4.14-8.01 4.14a7.166 7.166 0 0 1-2.223-.354c-6.202-2.009-9.303-12.156-10.533-17.52l-.1.025a2.93 2.93 0 0 1-2.238-.34 2.922 2.922 0 0 1-.634-.534l-1.658.405a1.584 1.584 0 0 1-1.911-1.165 1.587 1.587 0 0 1 1.162-1.917l1.665-.406c.071-.252.164-.5.303-.731a2.936 2.936 0 0 1 1.82-1.347l3.542-.88a2.941 2.941 0 0 1 2.87.874l9.713-2.37 14.718-3.594.749 3.082-13.725 3.35-10.711 2.615a2.993 2.993 0 0 1-.304.731 2.934 2.934 0 0 1-1.82 1.348l-.365.09c1.262 5.42 4.085 13.86 8.43 15.266 2.018.651 4.392-.371 7.056-3.043 4.327-4.096 9.943-6.334 15.846-6.334h23.92l.228.002zM92.856 9.676a4.435 4.435 0 0 1-.454 3.347 4.328 4.328 0 0 1-2.648 2.044l-.561.15c-.126.033-.253.053-.378.074L61.745 22 61 18.905l23.326-5.78a4.386 4.386 0 0 1-.445-1.059h.001l-1.65-6.381a4.433 4.433 0 0 1 .455-3.346A4.333 4.333 0 0 1 85.336.294l.559-.149c2.32-.618 4.703.796 5.312 3.15l1.649 6.381zM83 117c2.758 0 5 2.243 5 5s-2.242 5-5 5-5-2.243-5-5 2.242-5 5-5zm-1 18v-6h3v6h-3zm1-11.21c.987 0 1.79-.803 1.79-1.79s-.803-1.79-1.79-1.79-1.79.803-1.79 1.79.803 1.79 1.79 1.79zm6.69-112.375c.165-.286.211-.615.13-.93l-1.65-6.381A1.216 1.216 0 0 0 87 3.187c-.102 0-.205.013-.308.04l-.558.15c-.31.082-.571.285-.735.57-.165.284-.21.615-.13.93l1.651 6.382c.081.313.28.578.561.745.25.148.534.185.815.137l.54-.134.004.01.117-.031c.31-.083.57-.285.735-.57zM72.659 62.754c2.026-3.225 2.002-10.53-3.313-15.863-1.146-1.149-2.945-1.415-4.253-1.436l-.179-.003H50.272v26.686h-3.163V45.452h-6.115c-2.273 0-4.488.405-6.583 1.143V83.47H61.962V62.803l-6.004-4.63 1.928-2.513 11.186 8.625c1.467.436 2.674-.08 3.586-1.531z" fill="#9C0" fill-rule="evenodd"/></svg>