<svg width="82" height="133" viewBox="0 0 82 133" xmlns="http://www.w3.org/2000/svg"><title>Group</title><g fill="none" fill-rule="evenodd"><path fill="#9C0" d="M10 112h63v-4H10zM10 18h63v-4H10z"/><path d="M78.21 122.15c0 3.983-3.231 7.223-7.204 7.223H10.821c-3.972 0-7.203-3.24-7.203-7.223V11.108c0-3.982 3.23-7.223 7.203-7.223h60.185c3.973 0 7.204 3.24 7.204 7.223V122.15zM71.006.258H10.821C4.854.258 0 5.126 0 11.108V122.15C0 128.133 4.853 133 10.82 133h60.185c5.968 0 10.822-4.867 10.822-10.85V11.108c0-5.982-4.854-10.85-10.822-10.85z" fill="#9C0"/><path d="M40.914 123.692a3.142 3.142 0 0 1-3.134-3.142 3.142 3.142 0 0 1 3.134-3.143 3.142 3.142 0 0 1 0 6.285m0-9.912c-3.723 0-6.752 3.036-6.752 6.77 0 3.732 3.03 6.77 6.752 6.77 3.724 0 6.753-3.038 6.753-6.77 0-3.734-3.03-6.77-6.753-6.77M33.163 10.75h15.5V7.123h-15.5zM31 55c2.758 0 5 2.243 5 5s-2.242 5-5 5-5-2.243-5-5 2.242-5 5-5zm0 6.79c.987 0 1.79-.803 1.79-1.79s-.803-1.79-1.79-1.79-1.79.803-1.79 1.79.803 1.79 1.79 1.79zM30 73h3v-6h-3z" fill="#9C0"/><path d="M37.558 92.928c.434-.16.777-.476.967-.89l.072-.156-.013-.007.318-.724a1.69 1.69 0 0 0-.876-2.14l-8.394-3.861a1.702 1.702 0 0 0-1.314-.046 1.71 1.71 0 0 0-.968.891l-.342.745a1.724 1.724 0 0 0 .843 2.283l8.393 3.86c.414.19.879.206 1.314.045m-11.571.148a6.19 6.19 0 0 1-3.033-8.2l.342-.747a6.146 6.146 0 0 1 3.474-3.21 6.128 6.128 0 0 1 4.726.178l8.393 3.86c.499.227.938.537 1.35.879l21.293-46.478 4.084 1.795-23.497 51.492c-.06.17-.12.343-.196.51l-.345.749a6.139 6.139 0 0 1-3.472 3.209 6.13 6.13 0 0 1-4.727-.178l-8.392-3.859z" fill="#9C0"/></g></svg>