<svg width="92" height="92" viewBox="0 0 92 92" xmlns="http://www.w3.org/2000/svg"><title>Fill 1</title><path d="M58.588 50.584a2.008 2.008 0 0 0-.552 1.808l3.152 15.76-14.216-7.904a2.035 2.035 0 0 0-1.948 0l-14.216 7.904 3.152-15.76a2.013 2.013 0 0 0-.548-1.808l-11.06-11.06 13.868-1.54a2.012 2.012 0 0 0 1.528-1.016L46 22.116l8.252 14.852c.312.564.884.944 1.528 1.016l13.864 1.54-11.056 11.06zm17.304-13.248a1.99 1.99 0 0 0-1.668-1.328l-16.972-1.884-9.5-17.096c-.704-1.268-2.792-1.268-3.496 0l-9.5 17.096-16.98 1.884a2.009 2.009 0 0 0-1.668 1.328 1.99 1.99 0 0 0 .476 2.076L29.828 52.66l-3.792 18.944a2.004 2.004 0 0 0 .784 2.008 1.983 1.983 0 0 0 2.152.132L46 64.284l17.024 9.46c.308.168.644.256.976.256.412 0 .832-.132 1.184-.388a1.997 1.997 0 0 0 .784-2.008L62.176 52.66l13.248-13.248a1.987 1.987 0 0 0 .468-2.076zM46 88C22.836 88 4 69.16 4 46 4 22.836 22.836 4 46 4c23.16 0 42 18.836 42 42 0 23.16-18.84 42-42 42zm0-88C20.636 0 0 20.632 0 46c0 25.36 20.636 46 46 46 25.36 0 46-20.64 46-46C92 20.632 71.36 0 46 0z" fill="#9C0" fill-rule="evenodd"/></svg>