<svg width="500" height="134" viewBox="0 0 500 134" xmlns="http://www.w3.org/2000/svg"><title>logo-bridgestone</title><path d="M298.375 126.745a38.434 38.434 0 0 0 13.93-2.645l-1.704 4.82c-.881 2.351-2.292 3.292-6.583 3.292h-28.686c-2.233 0-3.468-1.646-2.88-3.88l10.228-39.619c.294-1.234 1.47-2.116 2.645-2.116h10.346l-10.405 40.148h13.109zm-147.484-16.4v-.059h9.993l-4.702 18.164c-.353 1.47-.94 2.174-2.117 2.468-4.643 1.117-8.993 2.117-14.519 2.117-15.988 0-26.98-9.17-22.572-26.158 3.468-13.579 16.341-21.28 31.448-21.28 6.29 0 10.522 1.117 12.52 1.882 1.706.646 2.235 2.057 1.764 3.82l-1.058 4.174c-2.233-1.999-5.82-5.055-12.697-5.055-8.053 0-16.929 4.526-20.22 17.223-3.292 12.58 2.939 20.573 11.403 20.573 1.646 0 2.88-.176 4.174-.47l3.938-15.283c.294-1.235 1.47-2.116 2.645-2.116zm230.013-23.748c3.35 0 3.997 1 3.468 2.939l-1.234 4.115c-2.351-1.235-4.585-1.94-10.875-1.94h-11.168l-3.762 14.637h20.926l-1.293 3.409c-.53 1.352-1.117 1.822-2.645 1.822h-18.399l-4.585 17.811c-.411 1.587-1.999 2.822-3.527 2.822h-9.229l11.228-43.499c.294-1.234 1.47-2.116 2.645-2.116h28.45zm-158.299-.94c15.048 0 26.275 8.993 21.867 25.981-3.821 14.695-16.106 21.455-29.038 21.455-15.049 0-26.393-8.405-21.867-25.981 3.82-14.696 16.224-21.456 29.038-21.456zm-2.175-51.14v.058h14.225l-6.7 25.1c-5.762 1.058-9.759 1.763-19.223 1.763-19.985 0-21.866-5.702-16.282-27.216 5.937-23.1 10.992-26.98 29.508-26.98 16.636 0 18.164 7.876 15.871 16.811h-14.225c1.411-4.82 1.352-8.582-4.232-8.582-5.82 0-8.17 2.88-12.285 18.693-3.939 15.224-4.997 18.046 4.35 18.046 1.998 0 3.232-.118 4.232-.236l4.761-17.458zm33.917 17.281v.059h19.163l-1.587 4.056c-1.176 3.056-3.586 5.055-7.348 5.055h-19.104c-6.877 0-9.405-3.703-7.406-12.168l6.583-25.276c3.586-13.814 6.349-15.46 15.519-15.46h22.16l-2.175 8.289h-15.224c-3.057 0-4.585 1.88-5.173 4.056l-2.175 8.405h19.045l-2.175 8.289h-19.045l-3.233 12.638c-.352 1.47.294 2.057 2.175 2.057zm217.669 0v.059h19.163l-1.587 4.056c-1.176 3.056-3.586 5.055-7.348 5.055H463.14c-6.936 0-9.405-3.703-7.407-12.168l6.584-25.276c3.586-13.814 6.348-15.46 15.518-15.46h22.161l-2.175 8.289h-15.224c-3.057 0-4.585 1.88-5.173 4.056l-2.175 8.405h19.045l-2.175 8.289h-19.045l-3.233 12.638c-.353 1.47.294 2.057 2.175 2.057zM170.818 8.006c18.458 0 21.573 6.583 16.518 26.216-5.82 22.631-9.405 26.687-30.743 26.687h-16.988c-.823 0-1.352-.705-1.117-1.587l13.285-51.316h19.045zm266.458-.118c15.224 0 20.691 4.291 17.458 16.812l-9.346 36.21h-12.756c-.823 0-1.352-.706-1.117-1.588L440.45 24.7c1.646-6.349.823-8.524-5.349-8.524-1.822 0-3.586.118-4.761.118l-11.521 44.615h-12.756c-.823 0-1.352-.705-1.117-1.587l13.285-51.316c2.998.117 8.053-.118 19.045-.118zm-110.216.118h40.677l-1.352 3.527c-1.293 3.409-3.703 5.055-7.641 5.055h-6.995l-11.463 44.321H326.65c-.882 0-1.411-.705-1.176-1.587l9.288-35.798c.646-2.528 2.057-4.938 4.29-6.642.118-.118.118-.294 0-.294h-14.166l2.175-8.582zM128.848 60.909h-13.461c-.823 0-1.352-.705-1.117-1.587l13.285-51.316h13.46c.824 0 1.353.705 1.118 1.587l-13.285 51.316zM389.545 7.242c18.81 0 19.692 9.992 15.225 27.157-6.172 23.748-12.697 27.157-29.274 27.157-16.282 0-20.69-6.055-15.224-27.157 6.29-24.277 13.226-27.157 29.273-27.157zM8.345 34.81l8.289-29.038C17.457 2.774 20.748.07 24.099.07h25.276c.412 0 .588.53.235.764C36.443 9.828 20.572 23.23 9.05 35.222c-.293.294-.822.058-.705-.412zm19.986 17.458h5.173c2.645 0 5.408-2.116 6.113-4.702L53.196.07c8.876-.588 16.576 4.938 14.108 15.048-2.293 9.347-8.7 11.874-15.107 12.991-.236.059-.118.353 0 .353 7.582 1.587 12.285 7.7 9.875 16.753-2.998 11.05-11.169 15.694-26.158 15.694H.41c-.412 0-.53-.47-.294-.764 9.111-11.462 23.689-26.628 35.74-37.032.352-.294.822.058.705.47l-8.23 28.685zm77.122-12.579l4.938 21.22H99.046c-2.88 0-4.115-1.058-4.762-3.527l-5.29-25.628h1.881c4.938 0 9.111-2.998 10.463-8.406 1.058-4.056-.764-7.113-5.643-7.113-2.939 0-4.115.059-5.349.059L78.825 60.909H66.069c-.823 0-1.352-.705-1.117-1.587L78.237 8.006h20.338c13.755 0 19.163 6.877 16.93 15.46-1.705 6.524-5.702 10.345-11.757 12.226-.176.059-.176.235-.059.353.765.94 1.294 2.057 1.764 3.644zm173.23 3.292v.059h13.46c-2.41 7.7.118 10.169 4.35 10.169 4.41 0 6.643-2.116 7.76-6.525.588-2.292.47-4.35-1.705-5.878-5.055-3.527-14.166-4.291-17.634-10.17-1.529-2.645-1.764-6.877-1.117-9.463 2.41-9.405 9.17-14.343 21.749-14.343 14.93 0 18.869 7.054 15.871 16.047H308.72c1.47-4.29 1.293-7.935-4.585-7.935-3.762 0-6.113 1.881-6.995 5.35-.47 1.88-.529 4.055 1.176 5.642 3.292 3.116 12.697 4.115 17.576 9.405 2.468 2.763 3.174 7.172 2.116 11.286-3.057 11.992-10.346 15.107-23.395 15.107-14.284 0-21.338-5.878-15.93-18.751zm-63.426 85.469c7.23 0 14.108-5.879 17.106-17.165C235.89 97.648 231.07 90.3 222.84 90.3c-6.76 0-13.931 5.173-17.164 17.576-3.527 13.637 1.352 20.574 9.581 20.574zm-56.665-76.593c7.876 0 10.169-2.234 14.107-17.635 3.939-15.283 3.997-17.987-4.29-17.987-2.881 0-3.351.059-4.527.059l-9.17 35.563h3.88zm219.197.882c4.761 0 8.582-3.645 12.462-18.693 3.938-15.224 3.291-18.516-2.822-18.516-5.467 0-8.876 4.82-12.403 18.516-4.232 16.459-3.35 18.693 2.763 18.693z" fill="#FFF" fill-rule="nonzero"/></svg>