<svg width="500" height="155" viewBox="0 0 500 155" xmlns="http://www.w3.org/2000/svg"><title>logo-golflink</title><path d="M378.88 53.4s-12.14-44.16-71.543-38.062c-59.41 6.09-152.212 60.54-152.212 60.54S243.58 7.52 303.268 1.401C388.46-7.345 378.88 53.4 378.88 53.4zm15.997 22.149c0 8.453-6.732 15.174-15.176 15.174-8.456 0-15.177-6.72-15.177-15.174 0-8.459 6.72-15.179 15.177-15.179 8.444 0 15.176 6.72 15.176 15.179zm-68.645 66.096h31.607l-1.624 11.624H309.81l9.786-69.552h14.787l-8.152 57.928zm51.41 11.624h-13.77l6.527-46.3h13.77l-6.528 46.3zm33.352-41.099c5.611-4.282 10.2-6.016 15.808-6.016 10.713 0 13.567 8.974 12.241 18.46l-3.977 28.654h-13.77l3.882-27.635c.603-4.491-.415-9.284-4.083-9.284-3.162 0-6.938 2.141-11.629 7.141l-4.18 29.777h-13.764l6.523-46.3h13.764l-.815 5.203zm55.188 14.585l.198.203 16.527-19.989h17.034L481.58 129l17.849 24.27H482.7l-17.028-22.845-3.163 22.844h-13.764l9.787-69.552h13.765l-6.115 43.038zm-396.77-23.05c-8.87-4.284-17.438-6.425-26-6.425-18.871 0-25.5 11.627-25.5 21.927 0 12.34 9.685 20.5 24.067 20.5 4.285 0 6.426-.41 11.527-2.45v-8.156H43.41v-12.75h27.432v28.456c-5.202 5.404-18.055 9.381-29.273 9.381-24.27 0-41.511-14.785-41.511-35.592 0-21.213 17.135-35.8 41.92-35.8 10.405 0 20.506 2.349 27.432 5.713.002 0 .002 15.196.002 15.196zm53.458 50.483c-25.494 0-39.875-17.95-39.875-35.697 0-16.826 13.668-35.696 39.875-35.696s39.775 18.974 39.775 35.696c0 17.849-14.787 35.697-39.775 35.697zm105.378-.92H175.21V83.717h17.337v56.806h35.7v12.747zm57.632-56.802h-30.6v15.5h30.6v12.747h-30.6v28.556h-17.332V83.716h47.932v12.75zm-163.01.815c-13.258 0-22.028 8.463-22.028 21.21 0 12.753 8.77 21.216 22.028 21.216 13.157 0 21.932-8.463 21.932-21.216 0-12.746-8.775-21.21-21.932-21.21z" fill="#FFF" fill-rule="nonzero"/></svg>