<svg width="500" height="161" viewBox="0 0 500 161" xmlns="http://www.w3.org/2000/svg"><title>logo-drummond</title><path d="M472.957 152.603c0 4.34-12.974 7.859-28.98 7.859-16.008 0-28.985-3.518-28.985-7.859 0-4.344 12.977-7.863 28.984-7.863s28.981 3.519 28.981 7.863zm-21.58-31.704c0 9.62-7.798 17.418-17.42 17.418-9.622 0-17.42-7.798-17.42-17.418 0-9.618 7.798-17.412 17.42-17.412 9.622 0 17.42 7.794 17.42 17.412zm6.716 15.544V83.89h8.828v52.554h-8.828zm33.735-47.402c-3.707 0-5.385.821-5.608 5.311h.032v5.075h9.802v6.559h-9.802v30.378h-8.827v-30.378h-5.35v-6.559h5.35v-4.546c0-1.458-.216-6.01 3.414-8.974 3.886-3.174 7.458-4.918 19.161-2.063v6.94s-4.325-1.743-8.172-1.743zm-81.799 39.545c.24 10.397-2.271 13.502-2.271 13.502-9.919 14.22-31.545 5.617-31.545 5.617l1.434-7.288c27.243 10.155 23.249-9.262 23.42-9.44l-.059.063c-.038.037-.075.077-.112.115 0 0-8.466 10.412-21.694 2.091 0 0-4.94-3.063-6.013-12.248-1.138-9.743 4.305-16.451 4.305-16.451 12.546-14.092 32.415.268 32.415.268s-.148 12.065.12 23.771zm6.488-26.157l-.437.604C380.62 50.465 299.556 14.01 207.081 14.01c-83.85 0-158.192 29.187-197.714 73.454C45.523 35.45 127.787 0 220.193 0c96.356 0 180.32 39.577 213.22 95.726l-.513-.28c-.072.008-.14.012-.212.017h-.003c-10.916.816-16.168 6.966-16.168 6.966zm-67.452 26.344h-.004v7.646h-8.827v-4.595l-.133.046c.021-.02-.037.863-.056.884-.04.04-.078-.744-.115-.706 0 0-8.831 11.054-21.663 1.78 0 0-4.97-3.458-6.045-12.643-1.136-9.746 4.304-16.448 4.304-16.448 11.073-12.839 23.571-2.567 23.571-2.567s.054.086.137.235V83.862h8.827v44.85c0 .02.004.04.004.061zm-312.068-.155h-.004v7.644h-8.827v-4.595l-.13.045c.019-.018-.04.865-.06.886-.037.04-.076-.746-.113-.705 0 0-8.83 11.055-21.662 1.776 0 0-4.972-3.455-6.044-12.64-1.14-9.744 4.304-16.45 4.304-16.45 11.071-12.838 23.57-2.565 23.57-2.565s.052.087.135.234v-18.54h8.827v44.846c0 .023.004.041.004.064zm177.826-30.1c8.745 0 11.884 6.31 11.884 9.988v27.86h-8.845V109.72s.405-4.217-4.592-4.217c-4.998 0-10.365 6.581-10.365 6.581v24.28h-8.78V109.89s.304-4.32-4.557-4.32c-4.722 0-7.88 3.784-10.563 7.035v23.76h-8.733V99.36h8.733v5.14c.91-1.238 4.904-6.017 12.252-6.017 8.44 0 10.906 6.377 10.906 6.377s3.915-6.343 12.66-6.343zm-61.594-.005c8.746 0 11.884 6.31 11.884 9.989v27.858h-8.846v-26.644s.407-4.218-4.59-4.218c-4.999 0-10.366 6.582-10.366 6.582v24.28h-8.78v-26.475s.304-4.32-4.558-4.32c-4.72 0-7.88 3.783-10.563 7.031v23.764h-8.731V99.35h8.73v5.144c.913-1.238 4.907-6.018 12.253-6.018 8.442 0 10.906 6.38 10.906 6.38s3.916-6.344 12.661-6.344zm96.992.01c20.715 0 19.635 19.186 19.635 19.186 0 19.83-18.802 19.535-18.802 19.535s-19.627 1.322-19.773-19.096c-.152-21.044 18.94-19.625 18.94-19.625zm45.86-.01c10.645 0 11.574 9.203 11.574 9.203v28.65h-8.62l-.08-26.034c0-4.643-4.731-4.643-4.731-4.643-5.657 0-10.16 5.742-11.237 7.24v23.436h-8.867V99.273h8.867v5.315c6.755-6.893 13.094-6.075 13.094-6.075zM81.909 137.145c-10.644 0-11.574-9.207-11.574-9.207V99.292h8.62l.081 26.026c0 4.647 4.731 4.647 4.731 4.647 5.657 0 10.158-5.747 11.238-7.243v-23.43h8.867v37.095h-8.867v-5.322c-6.758 6.9-13.096 6.08-13.096 6.08zM65.142 98.599v8.123c-1.363-1.007-4.185-.792-4.185-.792-6.856 0-10.006 6.693-10.12 7.018v23.437H41.97V99.292h8.642v5.315c4.513-7.267 13.32-6.075 13.32-6.075.427 0 .815.038 1.21.067zm195.657 19.55s.833-13.217-10.38-13.217c0 0-9.987-.487-9.987 12.826 0 13.317 9.742 12.828 10.133 12.828.39 0 10.234.048 10.234-12.438zM28.07 123.625l.062-14.746s-3.67-3.731-9.113-3.731c-5.445 0-9.496 3.48-9.496 12.842 0 9.368 5.003 10.948 7.977 10.948 2.973 0 9.115-2.846 10.57-5.313zm312.065.154l.064-14.745s-3.672-3.732-9.113-3.732c-5.445 0-9.496 3.483-9.496 12.845 0 9.366 5.002 10.948 7.976 10.948 2.973 0 9.116-2.848 10.569-5.316zm60.966-.186l.064-14.744s-3.671-3.732-9.114-3.732c-5.444 0-9.495 3.479-9.495 12.842 0 9.369 5.001 10.95 7.977 10.95 2.972 0 9.114-2.85 10.568-5.316z" fill="#FFF" fill-rule="evenodd"/></svg>