<?xml version="1.0" encoding="UTF-8"?>
<svg width="79px" height="61px" viewBox="0 0 79 61" version="1.1" xmlns="http://www.w3.org/2000/svg" xmlns:xlink="http://www.w3.org/1999/xlink">
    <!-- Generator: Sketch 46.2 (44496) - http://www.bohemiancoding.com/sketch -->
    <title>Shape</title>
    <desc>Created with Sketch.</desc>
    <defs></defs>
    <g id="Page-1" stroke="none" stroke-width="1" fill="none" fill-rule="evenodd">
        <g id="icon-quote-close" fill="#99CC00">
            <path d="M12.473,58.958 C13.747,58.238 14.875,57.519 15.855,56.801 C18.34,54.904 20.758,52.698 23.111,50.183 C25.464,47.666 27.556,44.904 29.385,41.898 C31.216,38.891 32.67,35.687 33.749,32.289 C34.827,28.89 35.366,25.426 35.366,21.896 C35.366,20.132 35.138,18.056 34.68,15.671 C34.223,13.284 33.307,10.997 31.935,8.807 C30.562,6.617 28.618,4.754 26.101,3.219 C23.585,1.682 20.301,0.915 16.247,0.915 C13.894,0.915 11.754,1.258 9.825,1.944 C7.898,2.631 6.215,3.627 4.776,4.935 C3.339,6.241 2.227,7.859 1.443,9.788 C0.658,11.715 0.266,13.921 0.266,16.406 C0.266,18.955 0.839,21.193 1.982,23.122 C3.126,25.05 4.614,26.667 6.443,27.975 C8.274,29.282 10.283,30.263 12.473,30.917 C14.663,31.57 16.803,31.897 18.895,31.897 C20.007,31.897 20.644,32.191 20.807,32.78 C20.97,33.368 21.052,33.922 21.052,34.446 C21.052,35.753 20.791,37.06 20.267,38.368 C19.745,39.675 19.091,40.95 18.306,42.192 C17.522,43.433 16.64,44.609 15.659,45.722 C14.679,46.832 13.732,47.845 12.816,48.761 C12.228,49.283 11.558,49.823 10.806,50.379 C10.055,50.933 9.32,51.507 8.6,52.094 C7.881,52.683 7.276,53.335 6.786,54.056 C6.296,54.774 6.018,55.559 5.953,56.408 C5.953,57.127 6.117,57.911 6.443,58.762 C6.771,59.611 7.587,60.036 8.894,60.036 C10.006,60.036 11.198,59.676 12.473,58.958 Z M55.515,58.958 C56.789,58.238 57.917,57.519 58.897,56.801 C61.382,54.904 63.799,52.698 66.153,50.183 C68.506,47.666 70.598,44.904 72.427,41.898 C74.258,38.891 75.712,35.687 76.791,32.289 C77.869,28.89 78.408,25.426 78.408,21.896 C78.408,20.132 78.18,18.056 77.722,15.671 C77.265,13.284 76.349,10.997 74.977,8.807 C73.604,6.617 71.66,4.754 69.143,3.219 C66.628,1.682 63.343,0.915 59.289,0.915 C56.936,0.915 54.796,1.258 52.867,1.944 C50.94,2.631 49.257,3.627 47.818,4.935 C46.381,6.241 45.269,7.859 44.485,9.788 C43.7,11.715 43.308,13.921 43.308,16.406 C43.308,18.955 43.881,21.193 45.024,23.122 C46.168,25.05 47.656,26.667 49.485,27.975 C51.316,29.282 53.325,30.263 55.515,30.917 C57.705,31.57 59.846,31.897 61.937,31.897 C63.049,31.897 63.686,32.191 63.849,32.78 C64.012,33.368 64.094,33.922 64.094,34.446 C64.094,35.753 63.833,37.06 63.309,38.368 C62.787,39.675 62.133,40.95 61.348,42.192 C60.564,43.433 59.682,44.609 58.701,45.722 C57.721,46.832 56.774,47.845 55.858,48.761 C55.269,49.283 54.6,49.823 53.848,50.379 C53.097,50.933 52.362,51.507 51.642,52.094 C50.923,52.683 50.318,53.335 49.828,54.056 C49.338,54.774 49.06,55.559 48.995,56.408 C48.995,57.127 49.159,57.911 49.485,58.762 C49.813,59.611 50.629,60.036 51.936,60.036 C53.048,60.036 54.24,59.676 55.515,58.958 Z" id="Shape"></path>
        </g>
    </g>
</svg>