<?xml version="1.0" encoding="UTF-8"?>
<svg width="92px" height="92px" viewBox="0 0 92 92" version="1.1" xmlns="http://www.w3.org/2000/svg" xmlns:xlink="http://www.w3.org/1999/xlink">
    <!-- Generator: Sketch 46.2 (44496) - http://www.bohemiancoding.com/sketch -->
    <title>Fill 1</title>
    <desc>Created with Sketch.</desc>
    <defs></defs>
    <g id="Page-1" stroke="none" stroke-width="1" fill="none" fill-rule="evenodd">
        <g id="Fill-1" fill="#99CC00">
            <path d="M58.588,50.584 C58.116,51.06 57.904,51.736 58.036,52.392 L61.188,68.152 L46.972,60.248 C46.668,60.08 46.332,60 46,60 C45.668,60 45.332,60.08 45.024,60.248 L30.808,68.152 L33.96,52.392 C34.088,51.736 33.884,51.056 33.412,50.584 L22.352,39.524 L36.22,37.984 C36.86,37.912 37.428,37.536 37.748,36.968 L46,22.116 L54.252,36.968 C54.564,37.532 55.136,37.912 55.78,37.984 L69.644,39.524 L58.588,50.584 Z M75.892,37.336 C75.64,36.608 74.992,36.092 74.224,36.008 L57.252,34.124 L47.752,17.028 C47.048,15.76 44.96,15.76 44.256,17.028 L34.756,34.124 L17.776,36.008 C17.012,36.096 16.36,36.612 16.108,37.336 C15.852,38.06 16.036,38.868 16.584,39.412 L29.828,52.66 L26.036,71.604 C25.888,72.368 26.188,73.156 26.82,73.612 C27.448,74.076 28.292,74.128 28.972,73.744 L46,64.284 L63.024,73.744 C63.332,73.912 63.668,74 64,74 C64.412,74 64.832,73.868 65.184,73.612 C65.816,73.156 66.12,72.368 65.968,71.604 L62.176,52.66 L75.424,39.412 C75.968,38.868 76.152,38.06 75.892,37.336 L75.892,37.336 Z M46,88 C22.836,88 4,69.16 4,46 C4,22.836 22.836,4 46,4 C69.16,4 88,22.836 88,46 C88,69.16 69.16,88 46,88 L46,88 Z M46,0 C20.636,0 0,20.632 0,46 C0,71.36 20.636,92 46,92 C71.36,92 92,71.36 92,46 C92,20.632 71.36,0 46,0 L46,0 Z"></path>
        </g>
    </g>
</svg>