<?xml version="1.0" encoding="UTF-8"?>
<svg width="117px" height="123px" viewBox="0 0 117 123" version="1.1" xmlns="http://www.w3.org/2000/svg" xmlns:xlink="http://www.w3.org/1999/xlink">
    <!-- Generator: Sketch 46.2 (44496) - http://www.bohemiancoding.com/sketch -->
    <title>Combined Shape</title>
    <desc>Created with Sketch.</desc>
    <defs></defs>
    <g id="Page-1" stroke="none" stroke-width="1" fill="none" fill-rule="evenodd">
        <g id="Combined-Shape" fill="#99CC00">
            <path d="M27.9994192,3.48468849 C23.8551819,3.48468849 20.4845045,6.85554382 20.4845045,11 C20.4845045,15.1444562 23.8551819,18.5153115 27.9994192,18.5153115 C32.1436566,18.5153115 35.5154955,15.1444562 35.5154955,11 C35.5154955,6.85554382 32.1436566,3.48468849 27.9994192,3.48468849 Z M27.9994192,22 C21.9340584,22 17,17.0645195 17,11 C17,4.9343189 21.9340584,0 27.9994192,0 C34.0647801,0 39,4.9343189 39,11 C39,17.0645195 34.0647801,22 27.9994192,22 Z M41.5293602,70.462994 L41.5293602,50 L45,50 L45,70.462994 L45,73.9539796 L45,123 L41.5293602,123 L41.5293602,73.9539796 L30.2347415,73.9539796 L30.2347415,123 L26.7641017,123 L26.7641017,73.9539796 L15.4706398,73.9539796 L15.4706398,123 L12,123 L12,73.9539796 L12,70.462994 L12,50 L15.4706398,50 L15.4706398,70.462994 L41.5293602,70.462994 Z M117,3 L117,31.9771113 L75.4360396,31.9771113 L75.4360396,123 L71.9607921,123 L71.9607921,36.4953285 C69.7018812,39.5167486 66.3517426,42.7967169 62.0459109,43.6048251 C61.3728713,43.7312007 60.6986733,43.7938088 60.0233168,43.7938088 C56.463505,43.7938088 52.9025347,42.0338258 49.4133861,38.5405262 C45.7921782,35.1214288 41.0090792,33.2188385 35.9815545,33.2188385 L30.0574158,33.2188385 L30.0574158,59.5629318 L26.5821683,59.5629318 L26.5821683,33.2188385 L12.1714752,33.2188385 C5.75269307,33.2188385 3.47524752,38.919653 3.47524752,43.8019246 L3.47524752,72.3941121 L0,72.3941121 L0,43.8019246 C0,35.3915711 4.8919901,29.7406112 12.1714752,29.7406112 L35.9815545,29.7406112 C41.899901,29.7406112 47.5309604,31.9805896 51.8344752,36.0466372 C55.1602871,39.3741413 58.3656238,40.7526787 61.4064653,40.1857277 C67.2356139,39.0924049 71.1904455,31.4507396 71.9607921,29.8495957 L71.9607921,4.73911363 L71.9607921,3 L117,3 Z M75.4360396,28.4988841 L113.524752,28.4988841 L113.524752,6.47822726 L75.4360396,6.47822726 L75.4360396,28.4988841 Z"></path>
        </g>
    </g>
</svg>