<?xml version="1.0" encoding="UTF-8"?>
<svg width="82px" height="133px" viewBox="0 0 82 133" version="1.1" xmlns="http://www.w3.org/2000/svg" xmlns:xlink="http://www.w3.org/1999/xlink">
    <!-- Generator: Sketch 46.2 (44496) - http://www.bohemiancoding.com/sketch -->
    <title>Group</title>
    <desc>Created with Sketch.</desc>
    <defs></defs>
    <g id="Page-1" stroke="none" stroke-width="1" fill="none" fill-rule="evenodd">
        <g id="Group">
            <g id="Page-1" transform="translate(33.000000, 7.000000)">
                <g id="Group-11"></g>
            </g>
            <polygon id="Fill-1" fill="#99CC00" points="10 112 73 112 73 108 10 108"></polygon>
            <polygon id="Fill-2" fill="#99CC00" points="10 18 73 18 73 14 10 14"></polygon>
            <path d="M78.2103941,122.150102 C78.2103941,126.132847 74.9786294,129.373211 71.0064529,129.373211 L10.8208647,129.373211 C6.84868824,129.373211 3.61812941,126.132847 3.61812941,122.150102 L3.61812941,11.1084018 C3.61812941,7.12565636 6.84868824,3.88529273 10.8208647,3.88529273 L71.0064529,3.88529273 C74.9786294,3.88529273 78.2103941,7.12565636 78.2103941,11.1084018 L78.2103941,122.150102 Z M71.0064529,0.25802 L10.8208647,0.25802 C4.85415882,0.25802 0.000482352941,5.12582 0.000482352941,11.1084018 L0.000482352941,122.150102 C0.000482352941,128.132684 4.85415882,133.000484 10.8208647,133.000484 L71.0064529,133.000484 C76.9743647,133.000484 81.8280412,128.132684 81.8280412,122.150102 L81.8280412,11.1084018 C81.8280412,5.12582 76.9743647,0.25802 71.0064529,0.25802 L71.0064529,0.25802 Z" id="Fill-3" fill="#99CC00"></path>
            <path d="M40.9140206,123.692176 C39.1859912,123.692176 37.7799324,122.282376 37.7799324,120.549749 C37.7799324,118.817122 39.1859912,117.407322 40.9140206,117.407322 C42.6432559,117.407322 44.0493147,118.817122 44.0493147,120.549749 C44.0493147,122.282376 42.6432559,123.692176 40.9140206,123.692176 M40.9140206,113.780049 C37.1914618,113.780049 34.1622853,116.816076 34.1622853,120.549749 C34.1622853,124.282213 37.1914618,127.319449 40.9140206,127.319449 C44.6377853,127.319449 47.6669618,124.282213 47.6669618,120.549749 C47.6669618,116.816076 44.6377853,113.780049 40.9140206,113.780049" id="Fill-6" fill="#99CC00"></path>
            <polygon id="Fill-8" fill="#99CC00" points="33.1629706 10.7500273 48.6633824 10.7500273 48.6633824 7.12275455 33.1629706 7.12275455"></polygon>
            <path d="M31,55 C33.7578092,55 36,57.2432606 36,60 C36,62.7567394 33.7578092,65 31,65 C28.2421908,65 26,62.7567394 26,60 C26,57.2432606 28.2421908,55 31,55 Z M31,61.7907574 C31.987377,61.7907574 32.7907574,60.987377 32.7907574,60 C32.7907574,59.012623 31.987377,58.2092426 31,58.2092426 C30.012623,58.2092426 29.2092426,59.012623 29.2092426,60 C29.2092426,60.987377 30.012623,61.7907574 31,61.7907574 Z" id="Combined-Shape" fill="#99CC00"></path>
            <polygon id="Fill-10" fill="#99CC00" points="30 73 33 73 33 67 30 67"></polygon>
            <path d="M70.0953209,65.6257454 C69.8618108,66.025836 69.4914667,66.3084279 69.0512184,66.4244393 L68.8846379,66.4675717 L68.8801759,66.4541858 L68.1112286,66.6415888 C67.7126254,66.7100058 67.3080728,66.6579494 66.9540894,66.4497238 C66.5554861,66.2162137 66.271407,65.8458696 66.1568829,65.4071086 L63.8113705,56.4697695 C63.6953591,56.0295211 63.7608015,55.5669629 63.9943116,55.1683596 C64.2278217,54.7697564 64.5981657,54.4856772 65.0399014,54.3696658 L65.8326459,54.1614402 C65.9784038,54.1227698 66.125649,54.1049219 66.2699196,54.1049219 C67.0314303,54.1049219 67.7319606,54.6165619 67.9342369,55.3884838 L70.2782619,64.3243356 C70.3942733,64.764584 70.328831,65.2256549 70.0953209,65.6257454 M72.2504556,54.2566291 C71.3848321,50.9592284 67.9981919,48.9795981 64.7007912,49.8452216 L63.9065594,50.0534471 C62.3136337,50.4728729 60.9765281,51.4887163 60.1421384,52.9165488 C59.3062615,54.3458686 59.0772134,56.0101859 59.4966392,57.6016242 L61.8406642,66.537476 C61.9774981,67.0684512 62.2065463,67.5548067 62.4712902,68.0188522 L13.0018504,80.9178664 L14.0608262,85.251933 L68.8504294,71.0529963 C69.0289085,71.0232498 69.2088749,70.9949906 69.3873539,70.9488835 L70.1845604,70.7391706 C71.7759987,70.3212321 73.1131044,69.3053888 73.947494,67.8775563 C74.783371,66.4482365 75.0124191,64.7839192 74.5929933,63.1909935 L72.2504556,54.2566291 Z" id="Fill-1" fill="#99CC00" transform="translate(43.899867, 67.446952) scale(-1, 1) rotate(80.000000) translate(-43.899867, -67.446952) "></path>
        </g>
    </g>
</svg>