<?xml version="1.0" encoding="UTF-8"?>
<svg width="93px" height="136px" viewBox="0 0 93 136" version="1.1" xmlns="http://www.w3.org/2000/svg" xmlns:xlink="http://www.w3.org/1999/xlink">
    <!-- Generator: Sketch 46.2 (44496) - http://www.bohemiancoding.com/sketch -->
    <title>Combined Shape</title>
    <desc>Created with Sketch.</desc>
    <defs></defs>
    <g id="Page-1" stroke="none" stroke-width="1" fill="none" fill-rule="evenodd">
        <path d="M49,15.203728 C44.7014563,15.203728 41.2038835,18.701131 41.2038835,22.999466 C41.2038835,27.298869 44.7014563,30.796272 49,30.796272 C53.2985437,30.796272 56.7961165,27.298869 56.7961165,22.999466 C56.7961165,18.701131 53.2985437,15.203728 49,15.203728 Z M49,34 C42.9350485,34 38,29.065191 38,22.999466 C38,16.934809 42.9350485,12 49,12 C55.0660194,12 60,16.934809 60,22.999466 C60,29.065191 55.0660194,34 49,34 Z M65.1421216,42.2831229 C67.8552568,42.3275229 70.0814189,43.1457514 71.5802838,44.6490086 C77.7159324,50.8026371 78.3051486,59.7154086 75.3327162,64.4450657 C74.0362297,66.5086086 72.150527,67.6080371 70.0487432,67.6080371 C69.3193378,67.6080371 68.562527,67.4748371 67.7962297,67.2042086 L67.5590676,67.1196371 L65.1242027,65.2421514 L65.1242027,85.0551229 L65.1242027,86.6408371 L65.1242027,135.999894 L61.9620405,135.999894 L61.9620405,86.6408371 L50.271527,86.6408371 L50.271527,135.999894 L47.1093649,135.999894 L47.1093649,86.6408371 L34.4111757,86.6408371 L34.4111757,135.999894 L31.2490135,135.999894 L31.2490135,86.6408371 L31.2490135,85.0551229 L31.2490135,48.03398 C29.8555541,48.8226086 28.5400946,49.76558 27.3521757,50.89038 C24.6105811,53.6389514 21.9206351,55.0301514 19.3424189,55.0301514 C18.5908784,55.0301514 17.8498784,54.9128086 17.1194189,54.6760086 C10.9173649,52.6674371 7.81633784,42.5199229 6.58625676,37.15598 L6.48506757,37.1813514 C6.24895946,37.2405514 6.00968919,37.2690943 5.77147297,37.2690943 C5.24022973,37.2690943 4.71636486,37.1242657 4.24836486,36.8409514 C4.00593243,36.6950657 3.80039189,36.5090086 3.61382432,36.3070943 L1.9557973,36.71198 C1.82931081,36.7426371 1.70387838,36.7574371 1.58055405,36.7574371 C0.868013514,36.7574371 0.220824324,36.2711514 0.0447972973,35.5470086 C-0.160743243,34.6949514 0.358905405,33.8376086 1.20741892,33.6304086 L2.87177027,33.2244657 C2.94344595,32.9718086 3.0362027,32.7244371 3.17533784,32.4929229 C3.58325676,31.8142371 4.22939189,31.3364086 4.99463514,31.1461229 L8.53731081,30.26658 C9.61771622,29.9980657 10.6991757,30.3754657 11.4075,31.13978 L21.1195541,28.7696657 L35.8383649,25.1764371 L36.5867432,28.2580086 L22.8619054,31.6080943 L12.1506081,34.2234657 C12.0789324,34.4750657 11.9861757,34.7224371 11.8470405,34.9539514 C11.4391216,35.6336943 10.7929865,36.1115229 10.0277432,36.3018086 L9.66198649,36.3927229 C10.9236892,41.8116371 13.7475,50.2529229 18.0912568,51.6578657 C20.1097703,52.3090657 22.4835,51.2868086 25.1481486,48.6154086 C29.4750405,44.51898 35.0910405,42.2810086 40.9937432,42.2810086 L64.9133919,42.2810086 L65.1421216,42.2831229 Z M92.8558205,9.67631052 C93.1509659,10.8139309 92.9897872,12.002537 92.4015896,13.023315 C91.8144385,14.0430307 90.8735317,14.7685159 89.7536536,15.0669952 L89.192668,15.216766 C89.0670742,15.2496943 88.9404338,15.2698762 88.81484,15.2911203 L61.7451899,22 L61,18.9047379 L84.3259083,13.1242243 C84.1396108,12.7928167 83.9784321,12.4454761 83.8810969,12.0662693 L83.8821435,12.0662693 L82.2326783,5.68454832 C81.9375329,4.54799016 82.0987116,3.35938402 82.6869092,2.33860608 C83.2740602,1.31889035 84.2149671,0.593405097 85.3358918,0.293863602 L85.8947842,0.145155058 C88.2151296,-0.473047603 90.5982719,0.940745768 91.2074019,3.29565178 L92.8558205,9.67631052 Z M83,117 C85.7578092,117 88,119.243261 88,122 C88,124.756739 85.7578092,127 83,127 C80.2421908,127 78,124.756739 78,122 C78,119.243261 80.2421908,117 83,117 Z M82,135 L82,129 L85,129 L85,135 L82,135 Z M83,123.790757 C83.987377,123.790757 84.7907574,122.987377 84.7907574,122 C84.7907574,121.012623 83.987377,120.209243 83,120.209243 C82.012623,120.209243 81.2092426,121.012623 81.2092426,122 C81.2092426,122.987377 82.012623,123.790757 83,123.790757 Z M89.6908567,11.4151383 C89.8551753,11.1294054 89.9012263,10.8001222 89.8195904,10.4857099 L88.1701252,4.10398894 C88.0277855,3.55270512 87.5348299,3.18730699 86.998963,3.18730699 C86.8974413,3.18730699 86.7938264,3.20005343 86.6912582,3.22767073 L86.1334124,3.37637928 C85.8225677,3.45923118 85.5619606,3.66211212 85.397642,3.94678276 C85.2333235,4.2314534 85.1872724,4.56179881 85.2689084,4.87621116 L86.9194202,11.2589943 C87.0000096,11.5723445 87.1999131,11.8368332 87.4804059,12.0035992 C87.7295002,12.1523078 88.0141795,12.1894849 88.2946723,12.1406235 L88.8357723,12.0067858 L88.8389121,12.0163457 L88.956133,11.9855418 C89.265931,11.9026899 89.5265382,11.7008711 89.6908567,11.4151383 Z M72.657527,62.7536371 C74.684473,59.5293514 74.6602297,52.2234371 69.3446351,46.8912086 C68.1988784,45.7420943 66.3996081,45.4756943 65.091527,45.4545514 L64.9133919,45.4524371 L50.271527,45.4524371 L50.271527,72.1378943 L47.1093649,72.1378943 L47.1093649,45.4524371 L40.9937432,45.4524371 C38.7212027,45.4524371 36.5055811,45.8573229 34.4111757,46.5952086 L34.4111757,83.4694086 L48.6904459,83.4694086 L61.9620405,83.4694086 L61.9620405,62.8033229 L55.9581486,58.1730371 L57.8860135,55.6602086 L69.0716351,64.2854371 C70.5388784,64.72098 71.7457703,64.2050943 72.657527,62.7536371 Z" id="Combined-Shape" fill="#99CC00"></path>
    </g>
</svg>