<?xml version="1.0" encoding="UTF-8"?>
<svg width="79px" height="61px" viewBox="0 0 79 61" version="1.1" xmlns="http://www.w3.org/2000/svg" xmlns:xlink="http://www.w3.org/1999/xlink">
    <!-- Generator: Sketch 46.2 (44496) - http://www.bohemiancoding.com/sketch -->
    <title>Shape</title>
    <desc>Created with Sketch.</desc>
    <defs></defs>
    <g id="Page-1" stroke="none" stroke-width="1" fill="none" fill-rule="evenodd">
        <g id="icon-quote-open" fill="#99CC00">
            <path d="M66.527,2.043 C65.253,2.762 64.125,3.481 63.145,4.199 C60.66,6.096 58.243,8.302 55.889,10.817 C53.536,13.334 51.444,16.097 49.614,19.102 C47.784,22.109 46.33,25.312 45.251,28.711 C44.173,32.11 43.634,35.574 43.634,39.104 C43.634,40.869 43.862,42.944 44.32,45.329 C44.777,47.716 45.693,50.003 47.065,52.193 C48.438,54.383 50.382,56.246 52.899,57.781 C55.414,59.318 58.699,60.085 62.753,60.085 C65.106,60.085 67.246,59.742 69.175,59.056 C71.102,58.369 72.785,57.373 74.224,56.065 C75.661,54.759 76.773,53.141 77.557,51.212 C78.342,49.285 78.734,47.079 78.734,44.594 C78.734,42.045 78.161,39.807 77.018,37.878 C75.874,35.951 74.386,34.333 72.557,33.025 C70.726,31.718 68.717,30.738 66.527,30.083 C64.337,29.431 62.196,29.103 60.105,29.103 C58.993,29.103 58.356,28.809 58.193,28.221 C58.03,27.632 57.948,27.077 57.948,26.554 C57.948,25.247 58.209,23.94 58.733,22.632 C59.255,21.325 59.909,20.05 60.694,18.808 C61.478,17.567 62.36,16.391 63.341,15.278 C64.321,14.168 65.268,13.155 66.184,12.239 C66.773,11.716 67.442,11.177 68.194,10.621 C68.945,10.067 69.68,9.494 70.4,8.905 C71.119,8.317 71.724,7.664 72.214,6.944 C72.704,6.226 72.981,5.441 73.047,4.592 C73.047,3.873 72.883,3.089 72.557,2.238 C72.229,1.389 71.413,0.964 70.106,0.964 C68.994,0.964 67.802,1.324 66.527,2.043 Z M23.485,2.043 C22.211,2.762 21.083,3.481 20.103,4.199 C17.618,6.096 15.201,8.302 12.847,10.817 C10.494,13.334 8.402,16.097 6.572,19.102 C4.742,22.109 3.288,25.312 2.21,28.711 C1.131,32.11 0.592,35.574 0.592,39.104 C0.592,40.869 0.82,42.944 1.278,45.329 C1.735,47.716 2.651,50.003 4.023,52.193 C5.396,54.383 7.34,56.246 9.857,57.781 C12.373,59.318 15.657,60.085 19.711,60.085 C22.064,60.085 24.204,59.742 26.133,59.056 C28.06,58.369 29.743,57.373 31.182,56.065 C32.619,54.759 33.731,53.141 34.516,51.212 C35.3,49.285 35.692,47.079 35.692,44.594 C35.692,42.045 35.119,39.807 33.976,37.878 C32.832,35.951 31.344,34.333 29.515,33.025 C27.685,31.718 25.674,30.738 23.485,30.083 C21.295,29.431 19.155,29.103 17.063,29.103 C15.951,29.103 15.314,28.809 15.152,28.221 C14.988,27.632 14.906,27.077 14.906,26.554 C14.906,25.247 15.167,23.94 15.691,22.632 C16.213,21.325 16.867,20.05 17.652,18.808 C18.436,17.567 19.318,16.391 20.299,15.278 C21.279,14.168 22.226,13.155 23.142,12.239 C23.73,11.716 24.4,11.177 25.152,10.621 C25.903,10.067 26.638,9.494 27.358,8.905 C28.077,8.317 28.682,7.664 29.172,6.944 C29.662,6.226 29.939,5.441 30.005,4.592 C30.005,3.873 29.842,3.089 29.515,2.238 C29.187,1.389 28.371,0.964 27.064,0.964 C25.952,0.964 24.76,1.324 23.485,2.043 Z" id="Shape"></path>
        </g>
    </g>
</svg>