<?xml version="1.0" encoding="UTF-8"?>
<svg width="163px" height="103px" viewBox="0 0 163 103" version="1.1" xmlns="http://www.w3.org/2000/svg" xmlns:xlink="http://www.w3.org/1999/xlink">
    <!-- Generator: Sketch 46.2 (44496) - http://www.bohemiancoding.com/sketch -->
    <title>Group 15</title>
    <desc>Created with Sketch.</desc>
    <defs></defs>
    <g id="Page-1" stroke="none" stroke-width="1" fill="none" fill-rule="evenodd">
        <g id="Group-15" fill="#99CC00">
            <path d="M64,71 L64,67 L68,67 L68,71 L64,71 Z M72,71 L72,67 L76,67 L76,71 L72,71 Z M56,71 L56,67 L60,67 L60,71 L56,71 Z M48,71 L48,67 L52,67 L52,71 L48,71 Z M80,71 L80,67 L84,67 L84,71 L80,71 Z M88,71 L88,67 L92,67 L92,71 L88,71 Z M104,71 L104,67 L108,67 L108,71 L104,71 Z M112,71 L112,67 L116,67 L116,71 L112,71 Z M96,71 L96,67 L100,67 L100,71 L96,71 Z" id="Combined-Shape"></path>
            <path d="M128.739372,71.2225192 C127.164581,71.2225192 125.882928,69.9350192 125.882928,68.3530449 C125.882928,66.7710705 127.164581,65.4835705 128.739372,65.4835705 C130.314162,65.4835705 131.595815,66.7710705 131.595815,68.3530449 C131.595815,69.9350192 130.314162,71.2225192 128.739372,71.2225192 M128.739372,61.5220321 C124.989057,61.5220321 121.93938,64.5869423 121.93938,68.3530449 C121.93938,72.1204679 124.989057,75.1840577 128.739372,75.1840577 C132.489686,75.1840577 135.539364,72.1204679 135.539364,68.3530449 C135.539364,64.5869423 132.489686,61.5220321 128.739372,61.5220321" id="Fill-13"></path>
            <path d="M150.419949,89.6105282 C144.60453,95.6901692 136.78053,99.0389897 128.389973,99.0389897 C123.099046,99.0389897 117.885675,97.6577333 113.315102,95.0444385 C104.509159,90.0106436 94.1349976,87.3498103 83.3152153,87.3498103 L79.5662153,87.3498103 C68.7464331,87.3498103 58.3722718,90.0106436 49.5650137,95.0444385 C44.9957556,97.6577333 39.7823847,99.0389897 34.4914573,99.0389897 C26.1009008,99.0389897 18.2769008,95.6901692 12.4614815,89.6105282 C6.64869113,83.5335282 3.63319113,75.5365026 3.96970726,67.0905026 C4.55598145,52.3549 15.8818524,40.0279128 30.2127073,37.9824385 L30.2127073,60.3228744 C26.6188202,61.215541 23.9424653,64.4719256 23.9424653,68.3529128 C23.9424653,72.9166051 27.6401992,76.6312077 32.1844815,76.6312077 C36.7287637,76.6312077 40.4251831,72.9166051 40.4251831,68.3529128 L36.4816347,68.3529128 C36.4816347,70.7337974 34.5532395,72.6696692 32.1844815,72.6696692 C29.8144089,72.6696692 27.8860137,70.7337974 27.8860137,68.3529128 C27.8860137,66.6903872 28.8377234,65.2615923 30.2127073,64.5405923 L30.2127073,68.3529128 L34.1562556,68.3529128 L34.1562556,37.6853231 C39.3669976,37.6364641 44.4791508,38.8803872 49.0260621,41.3603103 C58.6233444,46.5908615 69.0632315,49.3560154 79.2178685,49.3560154 L83.6635621,49.3560154 C93.8168847,49.3560154 104.258086,46.5908615 113.856683,41.3603103 C118.830812,38.6466564 124.476659,37.3934897 130.198748,37.7183359 C145.679804,38.6149641 158.291272,51.5163744 158.911723,67.0905026 C159.24824,75.5365026 156.23274,83.5335282 150.419949,89.6105282 L150.419949,89.6105282 Z M34.1562556,16.3709256 L34.1562556,7.24750256 L43.2369331,11.8098744 L34.1562556,16.3709256 Z M162.852643,66.9333615 C162.152006,49.3454513 147.909223,34.7762333 130.424844,33.7647205 C123.987659,33.3857333 117.595167,34.8145282 111.97561,37.8781179 C102.954086,42.7957077 93.1622556,45.3944769 83.6635621,45.3944769 L79.2178685,45.3944769 C69.7178605,45.3944769 59.9273444,42.7957077 50.9071347,37.8781179 C45.7818363,35.0839128 40.0242556,33.6656821 34.1562556,33.7237846 L34.1562556,20.7999256 L52.0560218,11.8098744 L30.2127073,0.837733333 L30.2127073,4.04261795 L30.2127073,22.7806949 L30.2127073,33.9799641 C13.769425,36.0478872 0.699191129,50.1047462 0.0287879032,66.9333615 C-0.349792742,76.4661436 3.05611855,85.4944897 9.61818306,92.3545538 C16.1841911,99.2185795 25.0177395,103.000528 34.4914573,103.000528 C40.4646185,103.000528 46.3523363,101.439682 51.5170702,98.4883359 C59.7301669,93.7925923 69.4286669,91.3113487 79.5662153,91.3113487 L83.3152153,91.3113487 C93.4527637,91.3113487 103.151264,93.7925923 111.36436,98.4883359 C116.529094,101.439682 122.416812,103.000528 128.389973,103.000528 C137.863691,103.000528 146.69724,99.2185795 153.263248,92.3545538 C159.825312,85.4944897 163.231223,76.4661436 162.852643,66.9333615 L162.852643,66.9333615 Z" id="Fill-10"></path>
        </g>
    </g>
</svg>