<?xml version="1.0" encoding="UTF-8"?>
<svg width="500px" height="161px" viewBox="0 0 500 161" version="1.1" xmlns="http://www.w3.org/2000/svg" xmlns:xlink="http://www.w3.org/1999/xlink">
    <!-- Generator: Sketch 46.2 (44496) - http://www.bohemiancoding.com/sketch -->
    <title>logo-drummond</title>
    <desc>Created with Sketch.</desc>
    <defs></defs>
    <g id="Page-1" stroke="none" stroke-width="1" fill="none" fill-rule="evenodd">
        <path d="M472.957166,152.603026 C472.957166,156.943529 459.982626,160.461561 443.976059,160.461561 C427.969493,160.461561 414.992077,156.943529 414.992077,152.603026 C414.992077,148.258687 427.969493,144.739697 443.976059,144.739697 C459.982626,144.739697 472.957166,148.258687 472.957166,152.603026 Z M451.377347,120.89856 C451.377347,130.518987 443.579202,138.317132 433.956858,138.317132 C424.335471,138.317132 416.537327,130.518987 416.537327,120.89856 C416.537327,111.281008 424.335471,103.486698 433.956858,103.486698 C443.579202,103.486698 451.377347,111.281008 451.377347,120.89856 Z M458.093241,136.443085 L458.093241,83.8892464 L466.920913,83.8892464 L466.920913,136.443085 L458.093241,136.443085 Z M491.828005,89.0407189 C488.12113,89.0407189 486.442636,89.862232 486.220243,94.3522762 L486.251876,94.3522762 L486.251876,99.4270613 L496.054436,99.4270613 L496.054436,105.985747 L486.251876,105.985747 L486.251876,136.363521 L477.425163,136.363521 L477.425163,105.985747 L472.074303,105.985747 L472.074303,99.4270613 L477.425163,99.4270613 L477.425163,94.8814188 C477.425163,93.4234007 477.209479,88.8710481 480.838708,85.9070822 C484.724839,82.7331846 488.296552,80.9885475 500,83.8441926 L500,90.7843974 C500,90.7843974 495.674834,89.0407189 491.828005,89.0407189 Z M410.029447,128.586466 C410.268136,138.983353 407.757584,142.088232 407.757584,142.088232 C397.839035,156.307983 376.213203,147.704621 376.213203,147.704621 L377.647257,140.417406 C404.890436,150.57177 400.895984,131.154534 401.067572,130.977194 C401.087703,130.956105 401.029228,131.016496 401.008139,131.039502 C400.969796,131.076888 400.933369,131.117148 400.895984,131.154534 C400.895984,131.154534 392.429701,141.566758 379.202093,133.246181 C379.202093,133.246181 374.26151,130.182521 373.188846,120.998253 C372.050998,111.255126 377.493882,104.5469 377.493882,104.5469 C390.039932,90.4546418 409.908665,104.815306 409.908665,104.815306 C409.908665,104.815306 409.761041,116.880143 410.029447,128.586466 Z M416.517197,102.429371 L416.080079,103.033284 C380.620808,50.4650666 299.555574,14.0098195 207.081179,14.0098195 C123.230276,14.0098195 48.8886043,43.1970234 9.36682195,87.4638353 C45.5229884,35.4496843 127.786463,0 220.192798,0 C316.548531,0 400.512547,39.5773807 433.413336,95.7259382 L432.900489,95.4460294 C432.827636,95.4536982 432.760535,95.4575325 432.687682,95.4632841 C432.687682,95.4632841 432.686723,95.4632841 432.684806,95.4632841 C421.769321,96.2790457 416.517197,102.429371 416.517197,102.429371 Z M349.064924,128.773391 L349.06109,128.773391 L349.06109,136.41912 L340.234376,136.41912 L340.234376,131.823631 L340.101132,131.869643 C340.122221,131.849513 340.063747,132.733334 340.044575,132.754423 C340.005273,132.794684 339.966929,132.009597 339.929544,132.047941 C339.929544,132.047941 331.098996,143.102422 318.267286,133.827088 C318.267286,133.827088 313.296987,130.370405 312.222406,121.185179 C311.086475,111.439175 316.526483,104.736701 316.526483,104.736701 C327.599177,91.8982811 340.097298,102.169592 340.097298,102.169592 C340.097298,102.169592 340.150979,102.255866 340.234376,102.405406 L340.234376,83.8624058 L349.06109,83.8624058 L349.06109,128.711083 C349.06109,128.732172 349.064924,128.752302 349.064924,128.773391 Z M36.9972727,128.6181 L36.9934384,128.6181 L36.9934384,136.261911 L28.1657662,136.261911 L28.1657662,131.66738 L28.0363563,131.712434 C28.0545696,131.694221 27.9960955,132.577084 27.9759651,132.598173 C27.93858,132.637475 27.9002363,131.852388 27.8628512,131.892649 C27.8628512,131.892649 19.0323033,142.948089 6.20059316,133.66892 C6.20059316,133.66892 1.22933595,130.214155 0.156671699,121.029887 C-0.982135389,111.284842 4.46074899,104.579492 4.46074899,104.579492 C15.5324846,91.741072 28.0315634,102.014301 28.0315634,102.014301 C28.0315634,102.014301 28.0833273,102.100574 28.1657662,102.248197 L28.1657662,83.7071139 L36.9934384,83.7071139 L36.9934384,128.553874 C36.9934384,128.57688 36.9972727,128.595093 36.9972727,128.6181 Z M214.822766,98.5173576 C223.568,98.5173576 226.707388,104.828726 226.707388,108.505884 C226.707388,112.18496 226.707388,136.365439 226.707388,136.365439 L217.861502,136.365439 L217.861502,109.721379 C217.861502,109.721379 218.266987,105.503575 213.269848,105.503575 C208.27175,105.503575 202.904594,112.085266 202.904594,112.085266 L202.904594,136.365439 L194.124852,136.365439 L194.124852,109.890091 C194.124852,109.890091 194.428725,105.570676 189.567706,105.570676 C184.845683,105.570676 181.687123,109.354238 179.004983,112.604823 L179.004983,136.365439 L170.272211,136.365439 L170.272211,99.3599599 L179.004983,99.3599599 L179.004983,104.500888 C179.915645,103.262387 183.909139,98.4828483 191.256745,98.4828483 C199.696187,98.4828483 202.162644,104.86036 202.162644,104.86036 C202.162644,104.86036 206.078492,98.5173576 214.822766,98.5173576 Z M153.229407,98.5125647 C161.974641,98.5125647 165.11307,104.822975 165.11307,108.50205 C165.11307,112.181126 165.11307,136.359687 165.11307,136.359687 L156.267185,136.359687 L156.267185,109.715627 C156.267185,109.715627 156.673628,105.497823 151.676489,105.497823 C146.678391,105.497823 141.311235,112.079515 141.311235,112.079515 L141.311235,136.359687 L132.531493,136.359687 L132.531493,109.885298 C132.531493,109.885298 132.835366,105.564925 127.973388,105.564925 C123.252324,105.564925 120.092805,109.348487 117.409707,112.596196 L117.409707,136.359687 L108.678852,136.359687 L108.678852,99.3513325 L117.409707,99.3513325 L117.409707,104.495136 C118.322286,103.256636 122.31578,98.4770968 129.662427,98.4770968 C138.103787,98.4770968 140.568326,104.856525 140.568326,104.856525 C140.568326,104.856525 144.484174,98.5125647 153.229407,98.5125647 Z M250.220687,98.5231092 C270.935856,98.5231092 269.856482,117.709325 269.856482,117.709325 C269.856482,137.539714 251.053703,137.244467 251.053703,137.244467 C251.053703,137.244467 231.427494,138.566365 231.280829,118.14836 C231.129372,97.1043933 250.220687,98.5231092 250.220687,98.5231092 Z M296.080678,98.5125647 C306.72584,98.5125647 307.654716,107.716005 307.654716,107.716005 L307.654716,136.365439 L299.035058,136.365439 L298.955495,110.332002 C298.955495,105.688583 294.223886,105.688583 294.223886,105.688583 C288.567236,105.688583 284.06473,111.430548 282.987272,112.928827 L282.987272,136.365439 L274.120298,136.365439 L274.120298,99.272728 L282.987272,99.272728 L282.987272,104.58812 C289.742469,97.6948859 296.080678,98.5125647 296.080678,98.5125647 Z M81.9092169,137.144774 C71.2650133,137.144774 70.3351792,127.938458 70.3351792,127.938458 L70.3351792,99.2918998 L78.9557955,99.2918998 L79.0363172,125.317668 C79.0363172,129.964921 83.7669679,129.964921 83.7669679,129.964921 C89.4236182,129.964921 93.9251654,124.218163 95.0045398,122.721801 L95.0045398,99.2918998 L103.871514,99.2918998 L103.871514,136.386528 L95.0045398,136.386528 L95.0045398,131.065384 C88.2474261,137.965328 81.9092169,137.144774 81.9092169,137.144774 Z M65.1424873,98.5988379 L65.1424873,106.721945 C63.7793697,105.715424 60.9572754,105.930148 60.9572754,105.930148 C54.1014267,105.930148 50.9505353,112.623036 50.8364629,112.947999 L50.8364629,136.384611 L41.9704471,136.384611 L41.9704471,99.2918998 L50.6121524,99.2918998 L50.6121524,104.607292 C55.1252027,97.3402069 63.9317858,98.5317365 63.9317858,98.5317365 C64.3593178,98.5317365 64.7465889,98.5700802 65.1424873,98.5988379 Z M260.798748,118.14836 C260.798748,118.14836 261.631764,104.932254 250.418157,104.932254 C250.418157,104.932254 240.431547,104.445289 240.431547,117.758213 C240.431547,131.07497 250.173716,130.586089 250.564821,130.586089 C250.954968,130.586089 260.798748,130.634018 260.798748,118.14836 Z M28.0708656,123.625753 L28.1331741,108.879735 C28.1331741,108.879735 24.462726,105.148896 19.0198416,105.148896 C13.5750401,105.148896 9.52403101,108.628584 9.52403101,117.991151 C9.52403101,127.35851 14.5269217,128.939228 17.5014322,128.939228 C20.4740254,128.939228 26.6157233,126.093169 28.0708656,123.625753 Z M340.135641,123.780087 L340.199867,109.035027 C340.199867,109.035027 336.52846,105.303229 331.086535,105.303229 C325.641733,105.303229 321.590724,108.785793 321.590724,118.14836 C321.590724,127.513802 326.592656,129.096437 329.567166,129.096437 C332.53976,129.096437 338.683375,126.248461 340.135641,123.780087 Z M401.102081,123.59412 L401.166307,108.850019 C401.166307,108.850019 397.4949,105.118221 392.052016,105.118221 C386.608173,105.118221 382.557164,108.596951 382.557164,117.960476 C382.557164,127.328794 387.558138,128.909511 390.533607,128.909511 C393.5062,128.909511 399.647898,126.060577 401.102081,123.59412 Z" id="logo-drummond" fill="#FFFFFF"></path>
    </g>
</svg>