<svg xmlns="http://www.w3.org/2000/svg" width="321" height="115" viewBox="0 0 321 115"><path fill="#fff" d="M98.14 12.35L50.23 92.39h22.62l8.81-15.67.28-.48h35.5l5.45 16.15h22.62l-30.97-80.04zm5.63 24.48l7.87 23.26H91.01zm101.98-6.93c5.4 0 6.77 1.41 6.45 5.62h19.57c.22-7.73-.4-14.09-3.67-17.55-3.57-3.94-8.66-5.62-17.34-5.62h-31.29c-8.67 0-13.98 1.99-18.39 6.04-4.41 4.06-6.34 9.43-7.28 18.37l-3.33 31.78c-.96 9.07-.13 14.13 3.43 18.19 3.55 4.05 8.49 5.66 17.16 5.66h31.29c8.68 0 14.17-1.59 18.56-5.52 4.4-3.94 6.49-9 7.49-18.54l2.26-21.58h-39.32l-1.55 14.75h19.66l-.76 7.22c-.49 4.65-2.15 6.12-7.66 6.12h-24.96c-5.51 0-7.19-1.3-6.7-5.95l3.43-32.65c.49-4.66 2.49-6.34 7.99-6.34zm58.24 44.94c-5.51 0-6.64-1.3-6.16-5.95l3.43-32.66c.49-4.65 1.94-6.33 7.45-6.33h24.96c5.62 0 6.99-.7 6.66 3.51h19.57c.23-7.72-.62-11.84-3.89-15.3-3.58-3.94-8.66-5.76-17.33-5.76h-31.29c-8.68 0-14.06 1.99-18.48 6.04-4.41 4.06-6.41 9.43-7.36 18.49l-3.33 31.66c-.95 9.07-.05 14.13 3.51 18.19 3.56 4.05 8.57 5.66 17.24 5.66h31.3c8.67 0 14.12-1.68 18.52-5.62 4-3.46 5.95-9.83 7.35-17.55h-19.57c-.56 4.21-2.12 5.62-7.62 5.62zM67.94 20.05c-.12-.85-.32-4.25-.57-5.27-.26-1.03-.44-1.83-2.1-3.24-1.67-1.41-5.4-2.86-6.32-2.9-8.69 1.11-10.7 7.94-10.7 7.94l-.11.54-.29.42s-.16.2-.36.3c-.2.09-.22.27-.22.27l-.12.37c-.05.12-.65.34-.65.34l-.12.37s-.12.28-.23.47c-.1.19-.27.31-.38.39-.11.08-.2.04-.32.06-.12.02-.11.07-.23.12-.11.05-.22.16-.36.27-.14.11-.18.73-.18.73s.04.13.04.88c-.01.76-.02.15-.02.15l-.72.54s-.09.44-.21.73c-.13.28-.07.3-.12.42-.05.13.09.74.09.74l.05.36.12.39-.3.34-.52-.22s-1.03-.89-2.24-2.04c-1.2-1.14-3.02-2.93-3.61-3.4-.6-.47-3.11-1.76-5.91-2.97-2.8-1.21-5.72-2.86-6.12-3.08.04-.01-6.16-2.97-7.04-3.86-.93-.94-1.63-1.68-1.85-2.71-.23-1.03-.68-1.87-.68-1.87s7.71-.1 7.86-.07c.15.03.06.26.06.26s-.93.89-1.42 1.57c-1.65 2.3-.81 3.42.82 4.45.93.6 1.78.83 3.1.98 3.74.43 3.93-1.96 4.11-2.57.14-.43.13-1.49-.02-1.99-.9-2.49-3.42-3.32-3.96-3.55-.45-.19-.93-.39-1.29-.24-.17.06-.63.38-.63.38l-9.45-.81s-.23-.63-.89-1.34c-.68-.72-1.2-.92-2.53-1.49-1.34-.58-2.76.11-4.1 1.16-1.33 1.04-.89 2.96-.78 3.34.12.38.65 1.48.57 1.61-1.51 2.23.82 4.25.93 4.57.12.33-.28.98-.4 1.23-.13.25.13.7-1.3 4.33-1.43 3.63-3.46 9.11-4.43 13.04A49.63 49.63 0 0 0 .7 38.56c-.01.61.05.25.17.95.5 1.68 3.34 1.78 4.44 1.93 1.1.15 8.6 1.19 8.88 1.35.27.15 1.99-.15 3.43-.56 1.44-.4 3.56-.77 4.23-.89.67-.12.34.26.34.26s-.05.82-.15 1.82c-.1 1-2.06 5.13-2.39 6.55a96.4 96.4 0 0 1-2.9 9.21c-1.35 3.59-4.62 9.4-5.5 11-.88 1.6-1.22 2.96-1.29 3.21-.07.24-.01 1.01-.03 1.16-.02.14-.17.06-.29.05-.12-.01-.27.43-.27.43l-.33 1.26c-.39 1.49-.53 1.79-.51 2.04.02.26-.04.93-.28 1.22-.24.31-.71 2.21-1.37 5.28-.65 3.06-.44 7.56-.44 7.56h34.41s-.28-6.84-.84-7.2c-.56-.36-.69-2.48-1.09-3.1-.12-.18-.05-.28-.11-.56-.05-.28.21-.41.21-1.25 0-.58-.25-.56-.3-.75-.04-.2 0-.49-.02-.72-.02-.23.19-.53.3-.64.12-.1.45-.33.5-.51.04-.18.06-.3.34-.55.27-.26.73-.48 1.01-.68.28-.19.09-.73.29-1.2.2-.47 1.47-2.26 2.16-3.77.68-1.5 2.08-5.13 2.92-6.58.83-1.45 1.45-1.8 2.12-2.66.67-.87 2.61-2.92 3.46-4.08.85-1.17.86-1.83 2.06-3.06 1.21-1.22 1.8-1.5 2.63-2.63.83-1.13 2.05-4.04 3.13-5.38 1.07-1.35 3.06-5.16 3.9-6.41.85-1.25-.04-4.01-.3-4.75-.26-.73-2.12-3.12-2.12-3.12s-.19-.2-.23-.3c-.04-.11.29-.4.55-.56.25-.16.59-.83.78-1.01.19-.18.44-.39.58-.42.15-.03.81.12 1.6.01.78-.11.69-.62.75-.98.06-.35-.14-2.97-.15-3.52 1.18.88 2.96 1.81 4.39 1.65 1.43-.17 2.82-1.63 3.3-2.33.48-.69.22-.99-.06-1.23-.29-.24-4.38-3.32-4.67-4.05zm-44.11 7.3c-.34.21-.74.39-1 .49-.25.11-.43.08-.8.32-.36.24-.04.21-.79.46-.74.25-.95.25-1.35.38l-.81.26c-.4.13-.39.25-1 .33-.62.07-.74.04-1.03.06-.29.02-.45-.09-.83-.03-.37.07-.44-.09-.72.1-.28.2-.61.52-.81.61-.2.09-.64.14-.81.17-.18.03-.25-.07-.59.05-.34.12-.46.19-.69.29-.22.1-.54.16-.71.25l-.31.14s-.34-.52-.5-3.06c-.16-2.55-.43-3.33.15-5.87.57-2.53 1.39-6.11 1.87-7.09.49-.98.54-1.11.54-1.11s4.1 3.29 5.23 4.59c1.13 1.31 2.89 3.48 4.19 4.78a23.23 23.23 0 0 0 2.87 2.56c.43.24.44.38.44.38l-.83.32c-.65.26-1.38.42-1.71.62zM4.69 111.6h6.37l1.02 2.8h2.87l-4.71-12.31H8.16L0 114.4h2.89zm4.08-6.4l1.49 4.19H6.09zm21.82-3.11l-5.02 4.95-3.62-4.95h-2.58l-1.72 12.31h2.57l1.16-8.28 3.65 4.84 4.99-4.84-1.15 8.28h2.57l1.72-12.31zm8.24 9.51h6.37l1.02 2.8h2.87l-4.72-12.31H42.3l-8.16 12.31h2.88zm4.08-6.4l1.49 4.19h-4.17zm12.24 9.2l1.39-9.93h4.97l.33-2.34H49.33l-.33 2.34h4.97l-1.39 9.93zm11.74-9.93h8.09l.33-2.34H64.64l-1.71 12.27h11.16l.33-2.34h-8.59l.37-2.65h7.85l.57-2.32h-8.1zm22.35-2.34l-1.18 8.46c-.17 1.23-.46 1.47-1.68 1.47h-4.17c-1.21 0-1.44-.24-1.27-1.47l1.19-8.46h-2.58l-1.2 8.57c-.19 1.4-.06 2.19.47 2.81.54.63 1.33.89 2.69.89h4.91c1.36 0 2.23-.26 2.94-.89.71-.62 1.06-1.41 1.26-2.81l1.2-8.57zm15.52 0h-8.59l-1.71 12.27h2.57l.56-4h3.9l2.53 4h3.07l-2.64-4.01c2.11-.34 3.02-1.35 3.34-3.66l.13-.92c.2-1.38.07-2.17-.47-2.8-.54-.62-1.33-.88-2.69-.88zm-6.34 2.34h5.65c1.21 0 1.43.25 1.26 1.47l-.09.66c-.17 1.21-.47 1.47-1.68 1.47h-5.64zm26.57 4.94h3.31l-.16 1.16c-.17 1.23-.47 1.49-1.68 1.49h-4.17c-1.22 0-1.44-.26-1.27-1.49l.65-4.63c.17-1.22.46-1.47 1.68-1.47h4.17c1.05 0 1.3.16 1.35.86l2.61-.24c.03-2.15-.87-2.96-3.26-2.96h-4.91c-1.36 0-2.23.26-2.94.88-.71.63-1.06 1.42-1.26 2.8l-.68 4.89c-.2 1.4-.07 2.19.47 2.81.54.63 1.33.89 2.69.89h4.91c1.36 0 2.22-.26 2.93-.87s1.06-1.36 1.26-2.83l.51-3.61h-5.65zm22.12 1.29l.68-4.87c.2-1.4.07-2.19-.47-2.82-.53-.62-1.33-.88-2.69-.88h-4.91c-1.36 0-2.22.26-2.93.88-.72.63-1.07 1.42-1.26 2.82l-.68 4.87c-.2 1.4-.07 2.19.47 2.81.53.63 1.33.89 2.69.89h4.91c1.36 0 2.22-.26 2.93-.89.72-.62 1.07-1.41 1.26-2.81zm-3.17-6.23c1.21 0 1.43.25 1.26 1.47l-.65 4.65c-.17 1.21-.46 1.47-1.67 1.47h-4.18c-1.21 0-1.43-.26-1.26-1.47l.65-4.65c.17-1.22.46-1.47 1.67-1.47zm11.23-2.34h-2.58l-1.72 12.27h9.93l.57-2.34h-7.59zm12.65 2.34h8.09l.33-2.34h-10.67l-1.72 12.27h2.58l.7-4.99h7.85l.56-2.32h-8.09zm28.37.86l2.61-.24c.01-2.15-.89-2.96-3.26-2.96h-4.91c-1.36 0-2.23.26-2.94.88-.71.63-1.06 1.42-1.26 2.82l-.68 4.87c-.19 1.4-.07 2.19.47 2.81.54.63 1.33.89 2.69.89h4.91c2.37 0 3.5-.81 4.09-2.97l-2.54-.23c-.24.69-.56.86-1.59.86h-4.17c-1.22 0-1.44-.26-1.27-1.47l.65-4.65c.17-1.22.47-1.47 1.68-1.47h4.17c1.03 0 1.3.16 1.35.86zm8.16 9.07l.7-4.99h6.99l-.7 4.99h2.7l1.72-12.27h-2.7l-.7 4.96h-6.99l.7-4.96h-2.57l-1.72 12.27zm17.09-2.8h6.36l1.02 2.8h2.87l-4.71-12.31h-2.08l-8.16 12.31h2.89zm4.07-6.4l1.49 4.19h-4.17zm13.17-3.07h-2.57l-1.72 12.27h9.93l.57-2.34h-7.6zm12.98 0h-2.57l-1.72 12.27h9.93l.57-2.34h-7.6zm12.65 2.34h8.09l.33-2.34h-10.66l-1.72 12.27h11.16l.33-2.34h-8.59l.37-2.65h7.85l.57-2.32h-8.09zm13.58 9.93l1.26-9 6.33 5.63-.48 3.37h2.58l1.72-12.27h-2.58l-.79 5.64-6.33-5.64h-2.57l-1.72 12.27zm21.05-4.99h3.31l-.17 1.16c-.17 1.23-.46 1.49-1.68 1.49h-4.17c-1.21 0-1.44-.26-1.26-1.49l.65-4.63c.17-1.22.46-1.47 1.67-1.47h4.18c1.04 0 1.3.16 1.35.86l2.61-.24c.02-2.15-.88-2.96-3.27-2.96h-4.91c-1.36 0-2.22.26-2.93.88-.72.63-1.07 1.42-1.26 2.8l-.69 4.89c-.19 1.4-.06 2.19.48 2.81.53.63 1.32.89 2.69.89h4.9c1.37 0 2.23-.26 2.94-.87s1.05-1.36 1.26-2.83l.5-3.61h-5.64zm13.43-4.94h8.09l.33-2.34h-10.67l-1.72 12.27h11.16l.33-2.34h-8.59l.38-2.65h7.85l.56-2.32H312z"/></svg>