<?xml version="1.0" encoding="UTF-8"?>
<svg width="500px" height="134px" viewBox="0 0 500 134" version="1.1" xmlns="http://www.w3.org/2000/svg" xmlns:xlink="http://www.w3.org/1999/xlink">
    <!-- Generator: Sketch 46.2 (44496) - http://www.bohemiancoding.com/sketch -->
    <title>logo-bridgestone</title>
    <desc>Created with Sketch.</desc>
    <defs></defs>
    <g id="Page-1" stroke="none" stroke-width="1" fill="none" fill-rule="evenodd">
        <path d="M298.374665,126.744867 C303.606243,126.744867 308.426348,125.628014 312.305945,124.099688 L310.601273,128.919793 C309.719547,131.271063 308.308784,132.211572 304.017715,132.211572 L275.332212,132.211572 C273.098505,132.211572 271.864087,130.565682 272.451905,128.331975 L282.679933,88.7130627 C282.973842,87.4786456 284.149477,86.5969191 285.325113,86.5969191 L295.670704,86.5969191 L285.266331,126.744867 L298.374665,126.744867 Z M150.891207,110.344754 L150.891207,110.285972 L160.884108,110.285972 L156.181566,128.449539 C155.828876,129.919083 155.241058,130.624464 154.065422,130.918373 C149.421663,132.035226 145.071812,133.034517 139.546326,133.034517 C123.557684,133.034517 112.565494,123.864561 116.974126,106.876629 C120.442251,93.2980407 133.315458,85.597629 148.422373,85.597629 C154.712022,85.597629 158.944309,86.7144826 160.942889,87.4786456 C162.647561,88.125245 163.176597,89.5360075 162.706342,91.2994606 L161.648271,95.4729662 C159.414563,93.474386 155.828876,90.417734 148.951409,90.417734 C140.898306,90.417734 132.022259,94.9439302 128.73048,107.640792 C125.438701,120.220091 131.669568,128.214411 140.134143,128.214411 C141.780033,128.214411 143.01445,128.038066 144.307649,127.744157 L148.246027,112.460897 C148.539936,111.22648 149.715572,110.344754 150.891207,110.344754 Z M380.904269,86.5969191 C384.25483,86.5969191 384.901429,87.5962091 384.372393,89.5360075 L383.137976,93.6507313 C380.786705,92.4163142 378.552998,91.710933 372.263349,91.710933 L361.094813,91.710933 L357.33278,106.347593 L378.259089,106.347593 L376.96589,109.756936 C376.436854,111.108917 375.849037,111.579171 374.320711,111.579171 L355.922017,111.579171 L351.337039,129.390047 C350.925567,130.977155 349.338459,132.211572 347.810133,132.211572 L338.581395,132.211572 L349.808713,88.7130627 C350.102622,87.4786456 351.278257,86.5969191 352.453893,86.5969191 L380.904269,86.5969191 Z M222.604965,85.6564107 C237.653098,85.6564107 248.880416,94.6500214 244.471783,111.637953 C240.650968,126.333395 228.365578,133.093298 215.433589,133.093298 C200.385456,133.093298 189.040575,124.687505 193.566771,107.111756 C197.387586,92.4163142 209.790539,85.6564107 222.604965,85.6564107 Z M220.43004,34.5162718 L220.43004,34.5750535 L234.655228,34.5750535 L227.954106,59.6748689 C222.193493,60.7329407 218.196332,61.4383219 208.732468,61.4383219 C188.746666,61.4383219 186.86565,55.7364903 192.449918,34.2223629 C198.386876,11.1211277 203.442108,7.24153095 221.958366,7.24153095 C238.593606,7.24153095 240.121932,15.118288 237.829443,24.0531169 L223.604255,24.0531169 C225.015018,19.2330118 224.956236,15.4709786 219.371968,15.4709786 C213.552573,15.4709786 211.201302,18.3512853 207.086578,34.1635811 C203.1482,49.3880593 202.090128,52.2095842 211.436429,52.2095842 C213.435009,52.2095842 214.669426,52.0920207 215.668716,51.9744571 L220.43004,34.5162718 Z M254.34712,51.7981118 L254.34712,51.8568936 L273.509977,51.8568936 L271.922869,55.9128357 C270.747234,58.9694876 268.337181,60.9680678 264.575148,60.9680678 L245.471073,60.9680678 C238.593606,60.9680678 236.06599,57.2648163 238.06457,48.8002416 L244.648128,23.524081 C248.233816,9.71036525 250.996559,8.06447572 260.166515,8.06447572 L282.327242,8.06447572 L280.152317,16.3527051 L264.927839,16.3527051 C261.871187,16.3527051 260.342861,18.2337217 259.755043,20.4086472 L257.580118,28.8144402 L276.625411,28.8144402 L274.450485,37.1026696 L255.405192,37.1026696 L252.172195,49.7407499 C251.819504,51.2102941 252.466104,51.7981118 254.34712,51.7981118 Z M472.016011,51.7981118 L472.016011,51.8568936 L491.178867,51.8568936 L489.59176,55.9128357 C488.416124,58.9694876 486.006072,60.9680678 482.244039,60.9680678 L463.139964,60.9680678 C456.203715,60.9680678 453.734881,57.2648163 455.733461,48.8002416 L462.317019,23.524081 C465.902707,9.71036525 468.66545,8.06447572 477.835406,8.06447572 L499.996133,8.06447572 L497.821207,16.3527051 L482.596729,16.3527051 C479.540077,16.3527051 478.011751,18.2337217 477.423934,20.4086472 L475.249008,28.8144402 L494.294301,28.8144402 L492.119376,37.1026696 L473.074083,37.1026696 L469.841085,49.7407499 C469.488395,51.2102941 470.134994,51.7981118 472.016011,51.7981118 Z M170.818227,8.00569395 C189.275702,8.00569395 192.391136,14.5892521 187.335904,34.2223629 C181.516509,56.853344 177.930821,60.909286 156.593039,60.909286 L139.605107,60.909286 C138.782163,60.909286 138.253127,60.2039048 138.488254,59.3221783 L151.772933,8.00569395 L170.818227,8.00569395 Z M437.275985,7.88813041 C452.500463,7.88813041 457.967168,12.1791995 454.734171,24.6997163 L445.387869,60.909286 L432.632226,60.909286 C431.809281,60.909286 431.280245,60.2039048 431.515372,59.3221783 L440.450201,24.6997163 C442.09609,18.3512853 441.273146,16.1763598 435.10106,16.1763598 C433.278825,16.1763598 431.515372,16.2939234 430.339737,16.2939234 L418.81851,60.909286 L406.062866,60.909286 C405.239921,60.909286 404.710885,60.2039048 404.946012,59.3221783 L418.230692,8.00569395 C421.228562,8.12325749 426.283795,7.88813041 437.275985,7.88813041 Z M327.060169,8.00569395 L367.737153,8.00569395 L366.385172,11.5326001 C365.091973,14.9419427 362.681921,16.5878322 358.743542,16.5878322 L351.748511,16.5878322 L340.286067,60.909286 L326.648696,60.909286 C325.76697,60.909286 325.237934,60.2039048 325.473061,59.3221783 L334.76058,23.524081 C335.40718,20.9964649 336.817942,18.5864124 339.051649,16.8817411 C339.169213,16.7641775 339.169213,16.5878322 339.051649,16.5878322 L324.885243,16.5878322 L327.060169,8.00569395 Z M128.848044,60.909286 L115.387018,60.909286 C114.564074,60.909286 114.035038,60.2039048 114.270165,59.3221783 L127.554845,8.00569395 L141.01587,8.00569395 C141.838815,8.00569395 142.36785,8.71107518 142.132723,9.59280171 L128.848044,60.909286 Z M389.545189,7.24153095 C408.355355,7.24153095 409.237082,17.2344317 404.769667,34.3987082 C398.597581,58.1465429 392.072805,61.5558855 375.496346,61.5558855 C359.213796,61.5558855 354.805163,55.5013633 360.271868,34.3987082 C366.561517,10.1218376 373.497766,7.24153095 389.545189,7.24153095 Z M8.3454172,34.8101806 L16.6336466,5.77198673 C17.4565914,2.77411651 20.7483705,0.0701551383 24.0989313,0.0701551383 L49.3750919,0.0701551383 C49.7865643,0.0701551383 49.9629096,0.599191059 49.610219,0.834318135 C36.4431028,9.82792879 20.5720251,23.2301721 9.05079843,35.221653 C8.75688959,35.5155618 8.22785366,35.2804347 8.3454172,34.8101806 Z M28.3312186,52.268366 L33.5040143,52.268366 C36.1491939,52.268366 38.9119371,50.1522223 39.6173183,47.5658245 L53.1959069,0.0701551383 C62.071954,-0.517662551 69.7723658,5.00782373 67.3035315,15.118288 C65.0110425,24.4645893 58.6038297,26.9922053 52.1966168,28.1090589 C51.9614898,28.1678407 52.0790533,28.4617495 52.1966168,28.4617495 C59.779465,30.0488573 64.4820066,36.1621613 62.071954,45.2145537 C59.0740838,56.2655263 50.9034179,60.909286 35.9140668,60.909286 L0.409878393,60.909286 C-0.00159399009,60.909286 -0.119157528,60.4390319 0.115969548,60.145123 C9.22714374,48.6826781 23.8050224,33.5169817 35.8552851,23.1126086 C36.2079757,22.8186997 36.6782298,23.1713903 36.5606663,23.5828627 L28.3312186,52.268366 Z M105.4529,39.6890674 L110.390568,60.909286 L99.0456867,60.909286 C96.16538,60.909286 94.9309629,59.8512142 94.2843634,57.3823799 L88.9940042,31.7535286 L90.8750208,31.7535286 C95.8126894,31.7535286 99.986195,28.7556584 101.338176,23.3477356 C102.396248,19.2917936 100.574013,16.2351416 95.6951259,16.2351416 C92.7560374,16.2351416 91.5804021,16.2939234 90.3459849,16.2939234 L78.8247582,60.909286 L66.0691143,60.909286 C65.2461696,60.909286 64.7171336,60.2039048 64.9522607,59.3221783 L78.2369405,8.00569395 L98.5754326,8.00569395 C112.330366,8.00569395 117.738289,14.8831609 115.504582,23.4652992 C113.799911,29.9900755 109.80275,33.8108905 103.748228,35.6919071 C103.571883,35.7506889 103.571883,35.9270342 103.689446,36.0445977 C104.453609,36.985106 104.982645,38.1019597 105.4529,39.6890674 Z M278.682773,42.9808465 L278.682773,43.0396282 L292.143798,43.0396282 C289.733745,50.74004 292.261361,53.2088743 296.493649,53.2088743 C300.902281,53.2088743 303.135989,51.0927306 304.252842,46.6840979 C304.84066,44.3916089 304.723096,42.334247 302.548171,40.805921 C297.492939,37.2790149 288.381765,36.5148519 284.91364,30.636675 C283.385314,27.9914954 283.150187,23.759208 283.796787,21.1728102 C286.206839,11.7677272 292.966743,6.83005857 305.546041,6.83005857 C320.47661,6.83005857 324.414989,13.8838708 321.417119,22.8774815 L308.720257,22.8774815 C310.189801,18.5864124 310.013456,14.9419427 304.135279,14.9419427 C300.373245,14.9419427 298.021975,16.8229593 297.140248,20.2910837 C296.669994,22.1721003 296.611212,24.3470257 298.315883,25.9341335 C301.607663,29.0495672 311.012746,30.0488573 315.891632,35.3392165 C318.360467,38.1019597 319.065848,42.5105923 318.007776,46.6253162 C314.951124,58.616797 307.662185,61.7322308 294.612632,61.7322308 C280.328662,61.7322308 273.27485,55.8540539 278.682773,42.9808465 Z M215.257244,128.449539 C222.487402,128.449539 229.364869,122.571362 232.362739,111.285262 C235.889645,97.6478916 231.06954,90.3001705 222.840092,90.3001705 C216.080189,90.3001705 208.908813,95.4729662 205.675816,107.875919 C202.148909,121.51329 207.027796,128.449539 215.257244,128.449539 Z M158.591619,51.8568936 C166.468376,51.8568936 168.760865,49.6231864 172.699243,34.2223629 C176.637622,18.939103 176.696404,16.2351416 168.408174,16.2351416 C165.527867,16.2351416 165.057613,16.2939234 163.881978,16.2939234 L154.712022,51.8568936 L158.591619,51.8568936 Z M377.788835,52.7386201 C382.550158,52.7386201 386.370973,49.0941505 390.25057,34.0460176 C394.188949,18.8215394 393.542349,15.5297604 387.429045,15.5297604 C381.962341,15.5297604 378.552998,20.3498654 375.026092,34.0460176 C370.793805,50.5049129 371.675531,52.7386201 377.788835,52.7386201 Z" id="logo-bridgestone" fill="#FFFFFF" fill-rule="nonzero"></path>
    </g>
</svg>