<?xml version="1.0" encoding="UTF-8"?>
<svg width="500px" height="155px" viewBox="0 0 500 155" version="1.1" xmlns="http://www.w3.org/2000/svg" xmlns:xlink="http://www.w3.org/1999/xlink">
    <!-- Generator: Sketch 46.2 (44496) - http://www.bohemiancoding.com/sketch -->
    <title>logo-golflink</title>
    <desc>Created with Sketch.</desc>
    <defs></defs>
    <g id="Page-1" stroke="none" stroke-width="1" fill="none" fill-rule="evenodd">
        <path d="M378.879656,53.3997135 C378.879656,53.3997135 366.739971,9.23997135 307.336676,15.3381089 C247.926934,21.4283668 155.124642,75.8782235 155.124642,75.8782235 C155.124642,75.8782235 243.580229,7.51934097 303.267908,1.40114613 C388.459885,-7.34527221 378.879656,53.3997135 378.879656,53.3997135 Z M394.876791,75.5487106 C394.876791,84.002149 388.145415,90.7227794 379.700573,90.7227794 C371.244986,90.7227794 364.524355,84.0028653 364.524355,75.5487106 C364.524355,67.0902579 371.244269,60.3703438 379.700573,60.3703438 C388.145415,60.3703438 394.876791,67.0902579 394.876791,75.5487106 Z M326.232092,141.645415 L357.838825,141.645415 L356.2149,153.269341 L309.810888,153.269341 L319.597421,83.7170487 L334.383954,83.7170487 L326.232092,141.645415 Z M377.641117,153.268625 L363.87106,153.268625 L370.398997,106.968481 L384.168338,106.968481 L377.641117,153.268625 Z M410.993553,112.170487 C416.605301,107.887536 421.194842,106.154011 426.801576,106.154011 C437.515043,106.154011 440.368911,115.128223 439.04298,124.613897 L435.065903,153.267908 L421.296562,153.267908 L425.178367,125.632521 C425.780802,121.141834 424.762894,116.348854 421.095272,116.348854 C417.932665,116.348854 414.156877,118.489971 409.466332,123.489971 L405.286533,153.267192 L391.522206,153.267192 L398.045129,106.967049 L411.809456,106.967049 L410.993553,112.170487 Z M466.181948,126.755014 L466.379656,126.957736 L482.906877,106.969198 L499.940544,106.969198 L481.581662,129 L499.429799,153.269341 L482.699857,153.269341 L465.67192,130.424785 L462.509312,153.269341 L448.744986,153.269341 L458.532235,83.7170487 L472.296562,83.7170487 L466.181948,126.755014 Z M69.4118911,103.704871 C60.5415473,99.4212034 51.974212,97.280086 43.4111748,97.280086 C24.5408309,97.280086 17.9111748,108.906877 17.9111748,119.20702 C17.9111748,131.547278 27.5967049,139.70702 41.97851,139.70702 C46.2643266,139.70702 48.4047278,139.296562 53.5057307,137.25788 L53.5057307,129.101003 L43.4104585,129.101003 L43.4104585,116.351003 L70.8424069,116.351003 L70.8424069,144.80659 C65.6404011,150.211318 52.786533,154.188395 41.5687679,154.188395 C17.2987106,154.188395 0.0580229226,139.402579 0.0580229226,118.595989 C0.0580229226,97.3825215 17.1926934,82.7965616 41.97851,82.7965616 C52.3825215,82.7965616 62.4835244,85.1446991 69.4104585,88.5093123 C69.4118911,88.508596 69.4118911,103.704871 69.4118911,103.704871 Z M122.870344,154.187679 C97.3760745,154.187679 82.9949857,136.237822 82.9949857,118.491404 C82.9949857,101.664756 96.6633238,82.7951289 122.870344,82.7951289 C149.077364,82.7951289 162.645415,101.768625 162.645415,118.491404 C162.644699,136.339542 147.858166,154.187679 122.870344,154.187679 Z M228.247851,153.268625 L175.209885,153.268625 L175.209885,83.7163324 L192.546562,83.7163324 L192.546562,140.522206 L228.247851,140.522206 L228.247851,153.268625 Z M285.880372,96.4663324 L255.280086,96.4663324 L255.280086,111.965616 L285.880372,111.965616 L285.880372,124.713467 L255.280086,124.713467 L255.280086,153.268625 L237.948424,153.268625 L237.948424,83.7163324 L285.880372,83.7163324 L285.880372,96.4663324 Z M122.870344,97.2808023 C109.612464,97.2808023 100.842407,105.744269 100.842407,118.491404 C100.842407,131.243553 109.611748,139.70702 122.870344,139.70702 C136.027221,139.70702 144.802292,131.243553 144.802292,118.491404 C144.801576,105.744986 136.027221,97.2808023 122.870344,97.2808023 Z" id="logo-golflink" fill="#FFFFFF" fill-rule="nonzero"></path>
    </g>
</svg>