<?xml version="1.0" encoding="UTF-8"?>
<svg width="140px" height="141px" viewBox="0 0 140 141" version="1.1" xmlns="http://www.w3.org/2000/svg" xmlns:xlink="http://www.w3.org/1999/xlink">
    <!-- Generator: Sketch 46.2 (44496) - http://www.bohemiancoding.com/sketch -->
    <title>shape-steps</title>
    <desc>Created with Sketch.</desc>
    <defs></defs>
    <g id="Page-1" stroke="none" stroke-width="1" fill="none" fill-rule="evenodd">
        <g id="shape-steps" transform="translate(-18.000000, -21.000000)" fill-rule="nonzero" fill="#99CC00">
            <path d="M148.5,56.352341 L148.5,126.211724 L88,161.141415 L27.5,126.211724 L27.5,56.352341 L88,21.4226497 L148.5,56.352341 Z M28.5,56.9296913 L28.5,125.634373 L88,159.986714 L147.5,125.634373 L147.5,56.9296913 L88,22.5773503 L28.5,56.9296913 Z" id="Combined-Shape"></path>
            <path d="M148.5,56.352341 L148.5,126.211724 L88,161.141415 L27.5,126.211724 L27.5,56.352341 L88,21.4226497 L148.5,56.352341 Z M28.5,56.9296913 L28.5,125.634373 L88,159.986714 L147.5,125.634373 L147.5,56.9296913 L88,22.5773503 L28.5,56.9296913 Z" id="Combined-Shape" transform="translate(88.000000, 91.282032) rotate(30.000000) translate(-88.000000, -91.282032) "></path>
        </g>
    </g>
</svg>